<?xml version="1.0" standalone="no"?>
<!DOCTYPE svg PUBLIC "-//W3C//DTD SVG 1.1//EN" "http://www.w3.org/Graphics/SVG/1.1/DTD/svg11.dtd" >
<svg xmlns="http://www.w3.org/2000/svg" xmlns:xlink="http://www.w3.org/1999/xlink" version="1.1">
<metadata></metadata>
<defs>
<font id="_.regular" horiz-adv-x="1138" >
<font-face units-per-em="2048" ascent="1561" descent="-487" />
<missing-glyph horiz-adv-x="569" />
<glyph horiz-adv-x="0" />
<glyph unicode="&#xd;" horiz-adv-x="681" />
<glyph unicode=" "  horiz-adv-x="569" />
<glyph unicode="&#x09;" horiz-adv-x="569" />
<glyph unicode="&#xa0;" horiz-adv-x="569" />
<glyph unicode="!" horiz-adv-x="692" d="M229 98q0 49 35 83t82 34q49 0 83 -34t34 -83q0 -47 -34 -81.5t-83 -34.5q-47 0 -82 33.5t-35 82.5zM233 1251q0 147 113 147.5t113 -147.5q0 -33 -6 -118l-58 -783h-98l-57 783q-7 67 -7 118z" />
<glyph unicode="&#x22;" horiz-adv-x="677" d="M90 1362q0 100 84 100q86 0 86 -100q0 -8 -4 -41l-66 -457h-32l-64 457q-4 29 -4 41zM418 1360q0 102 86 102q84 0 84 -100q0 -25 -2 -41l-68 -457h-31l-65 457q-4 29 -4 39z" />
<glyph unicode="#" horiz-adv-x="1525" d="M131 471v96h326l98 299h-324v97h357l170 491l96 -37l-162 -454h316l163 489l97 -35l-160 -454h285v-97h-318l-100 -299h334v-96h-367l-172 -518l-96 33l164 485h-314l-170 -518l-96 33l168 485h-295zM561 567h305l105 299h-309z" />
<glyph unicode="$" d="M119 51v344h94l37 -223l18 -27q104 -51 262 -51v535q-375 86 -374 372q0 141 98 239.5t276 129.5v152h86v-146h17q133 0 330 -45v-319h-93l-30 190l-31 43q-94 35 -193 35v-502q213 -57 308.5 -145t95.5 -240q0 -147 -107.5 -253.5t-296.5 -139.5v-209h-86v209 q-251 8 -411 51zM330 1038q0 -172 200 -235v471q-96 -20 -148 -83t-52 -153zM621 102q106 16 167.5 86t61.5 168q0 178 -229 246v-500z" />
<glyph unicode="%" horiz-adv-x="1744" d="M63 971q0 201 84 314.5t223.5 113.5t223.5 -114t84 -314q0 -203 -83 -316.5t-224.5 -113.5t-224.5 113.5t-83 316.5zM207 971q0 -356 160 -357q164 0 163 357q0 354 -163 354q-160 0 -160 -354zM371 0l874 1374h125l-876 -1374h-123zM1067 406q0 201 84 314.5t223 113.5 t223 -114t84 -314q0 -203 -82.5 -317t-224 -114t-224.5 114t-83 317zM1210 405.5q0 -356.5 160 -356.5q164 0 164 356.5t-164 356.5q-160 0 -160 -356.5z" />
<glyph unicode="&#x26;" horiz-adv-x="1441" d="M109 379q0 244 270 366q-168 164 -168 314q0 143 106.5 241.5t266 98.5t256 -88t96.5 -219q0 -121 -70.5 -204t-228.5 -157l352 -381q94 135 115 242l-37 39l-113 16v82h416v-82l-147 -20q-57 -197 -170 -348l159 -185l187 -10v-84h-361v49l-92 103q-205 -176 -401 -177 q-190 0 -313 116t-123 288zM297 422q0 -141 85 -232.5t216 -91.5q156 0 285 123l-426 465q-160 -108 -160 -264zM375 1104q0 -76 46 -146.5t144 -158.5q201 92 201 282q0 102 -54.5 163t-146.5 61q-82 0 -136 -56.5t-54 -144.5z" />
<glyph unicode="'" horiz-adv-x="348" d="M90 1360q0 102 84 102q86 0 86 -100q0 -8 -4 -41l-66 -457h-32l-66 457q-2 14 -2 39z" />
<glyph unicode="(" horiz-adv-x="854" d="M217 584q0 397 149.5 624.5t424.5 261.5v-86q-209 -37 -304.5 -233.5t-95.5 -568.5q0 -362 97.5 -557t302.5 -230v-86q-270 31 -422 258.5t-152 616.5z" />
<glyph unicode=")" horiz-adv-x="854" d="M63 -205q205 35 302.5 229.5t97.5 557.5q0 373 -95.5 569.5t-304.5 232.5v86q274 -35 424 -262t150 -624q0 -389 -151.5 -616.5t-422.5 -258.5v86z" />
<glyph unicode="*" horiz-adv-x="1024" d="M111 1169l141 37l223 -143l-8 -25l-264 17zM266 692l8 148l205 166l21 -15l-97 -248zM432 1346l80 124l80 -124l-66 -256h-28zM522 991l23 15l203 -166l8 -148l-138 53zM551 1065l221 141l143 -37l-94 -114l-262 -17z" />
<glyph unicode="+" horiz-adv-x="1705" d="M254 553v117h541v551h118v-551h539v-117h-539v-553h-118v553h-541z" />
<glyph unicode="," horiz-adv-x="569" d="M80 -279q225 43 225 271v22h-131q-33 35 -33 90q0 51 34 82t87 31q78 0 121 -53t43 -152q0 -135 -97.5 -238.5t-248.5 -119.5v67z" />
<glyph unicode="-" horiz-adv-x="653" d="M96 424v137h461v-137h-461z" />
<glyph unicode="." horiz-adv-x="569" d="M154 110.5q0 55.5 38.5 93.5t92 38t91.5 -38t38 -93q0 -53 -38 -91t-91 -38q-55 0 -93 36.5t-38 92z" />
<glyph unicode="/" horiz-adv-x="985" d="M-57 -190l874 1564h125l-876 -1564h-123z" />
<glyph unicode="0" d="M84 688q0 336 131 523.5t354.5 187.5t354.5 -187.5t131 -523.5t-131 -524.5t-354.5 -188.5t-354.5 188.5t-131 524.5zM276 686q0 -301 75 -456.5t218 -155.5q141 0 216 155.5t75 458.5t-74.5 459t-216 156t-217.5 -157t-76 -460z" />
<glyph unicode="1" d="M193 1180v86l444 133h57v-1272l25 -31l221 -10v-86h-686v88l235 12l25 35v1102z" />
<glyph unicode="2" d="M86 0v129q158 127 249 205t190.5 174t149.5 166.5t83 150.5t33 160q0 145 -73 227t-200 82q-96 0 -182 -49v-219q-43 -31 -92 -31q-53 0 -84 31t-31 84q0 113 125 201t309 88q197 0 311.5 -105.5t114.5 -281.5q0 -180 -161.5 -365.5t-538.5 -484.5h616l37 174h92v-336 h-948z" />
<glyph unicode="3" d="M84 203q0 45 33 74.5t82 29.5q33 0 61 -10l64 -174q82 -49 174 -49q139 0 230 93t91 230q0 123 -77.5 189.5t-225.5 66.5q-57 0 -108 -8v121q6 0 20 -1t23 -1q154 0 235.5 69.5t81.5 194.5q0 121 -70.5 193.5t-189.5 72.5q-109 0 -195 -59v-193q-35 -27 -84 -26.5 t-79.5 31t-30.5 79.5q0 106 124 189.5t308 83.5t293.5 -94.5t109.5 -249.5q0 -244 -305 -332q170 -12 264.5 -100t94.5 -230q0 -176 -143.5 -296t-375.5 -120q-174 0 -289.5 71t-115.5 155z" />
<glyph unicode="4" d="M55 397v133l699 856h118v-856h232v-133h-232v-473h-157v473h-660zM209 530h506v633z" />
<glyph unicode="5" d="M102 174q0 47 34 78t85 31q18 0 49 -7l82 -176q68 -25 137 -24q143 0 233.5 92t90.5 235q0 307 -426 308q-113 0 -180 -13v676h733v-160h-606v-409q117 33 219 33q205 0 326.5 -108.5t121.5 -285.5q0 -203 -149.5 -332.5t-396.5 -129.5q-154 0 -253.5 58t-99.5 134z" />
<glyph unicode="6" d="M102 567q0 393 214 632t591 263v-119h-6q-246 0 -399.5 -142t-200.5 -415q162 125 348 125q184 0 305 -126t121 -320q0 -207 -142 -348.5t-353 -141.5t-344.5 160t-133.5 432zM293 571q0 -242 79 -369.5t224 -127.5q127 0 210 105.5t83 266.5q0 156 -82 249t-213 93 q-172 0 -297 -92q-4 -43 -4 -125z" />
<glyph unicode="7" d="M145 1032v342h942v-82l-679 -1323v-45h-170l667 1295h-631l-32 -187h-97z" />
<glyph unicode="8" d="M90 362q0 246 281 355q-215 90 -215 315q0 164 116.5 267.5t307.5 103.5q182 0 290.5 -96.5t108.5 -247.5q0 -102 -61.5 -191.5t-174.5 -148.5q293 -102 293 -352q0 -168 -132 -284t-341 -116q-217 0 -345 109.5t-128 285.5zM248 375q0 -135 87 -218t234 -83 q131 0 211 74.5t80 197.5q0 113 -90 177.5t-321 150.5q-104 -55 -152.5 -126t-48.5 -173zM326 1063q0 -100 80.5 -173t250.5 -134q164 106 164 282q0 123 -67.5 195t-180.5 72q-106 0 -176.5 -70t-70.5 -172z" />
<glyph unicode="9" d="M88 911q0 213 139.5 348.5t360.5 135.5q215 0 338 -139.5t123 -385.5q0 -307 -209 -571t-582 -405l-47 94q473 221 604 563q-172 -80 -307 -80q-186 0 -303 120.5t-117 319.5zM281 934q0 -170 78.5 -261t224.5 -91q119 0 258 71q25 109 24 207q0 213 -77.5 325.5 t-219.5 112.5q-127 0 -207.5 -99t-80.5 -265z" />
<glyph unicode=":" horiz-adv-x="653" d="M197 110.5q0 55.5 37.5 93.5t91 38t92.5 -38t39 -93q0 -53 -39 -91t-92.5 -38t-91 36.5t-37.5 92zM197 856q0 55 37.5 92t91.5 37q55 0 93 -37t38 -92q0 -53 -39 -92t-92.5 -39t-91 39t-37.5 92z" />
<glyph unicode=";" horiz-adv-x="653" d="M133 -279q225 43 225 271v22h-133q-33 35 -32 90q0 51 33.5 82t86.5 31q78 0 121 -53t43 -152q0 -135 -96 -238.5t-248 -119.5v67zM197 856q0 55 37.5 92t91.5 37q55 0 93 -37t38 -92q0 -53 -39 -92t-92.5 -39t-91 39t-37.5 92z" />
<glyph unicode="&#x3c;" horiz-adv-x="1705" d="M264 559v103l1178 483v-127l-1000 -408l1000 -405v-129z" />
<glyph unicode="=" horiz-adv-x="1705" d="M254 360v117h1198v-117h-1198zM254 743v117h1198v-117h-1198z" />
<glyph unicode="&#x3e;" horiz-adv-x="1705" d="M264 76v129l1000 405l-1000 408v127l1178 -483v-103z" />
<glyph unicode="?" horiz-adv-x="995" d="M113 1208q0 80 84 135.5t217 55.5q195 0 310.5 -101.5t115.5 -269.5q0 -143 -92.5 -249.5t-282.5 -188.5v-240h-109v299q297 111 297 367q0 137 -74.5 213t-211.5 76h-13l-82 -203q-12 -2 -36 -2q-123 -1 -123 108zM295 98q0 49 33.5 83t81.5 34q49 0 83.5 -34t34.5 -83 q0 -47 -34.5 -81.5t-83.5 -34.5q-47 0 -81 33.5t-34 82.5z" />
<glyph unicode="@" horiz-adv-x="1929" d="M156 504q0 408 297 680q121 111 286.5 172t341.5 61q324 0 513.5 -179t189.5 -474q0 -227 -115 -404q-76 -115 -182.5 -181t-206.5 -66q-152 0 -152 157v19q-166 -172 -301 -172q-111 0 -182.5 90t-71.5 237q0 195 115 351q74 100 179.5 156.5t215.5 56.5q96 0 201 -56 l37 47h111q-20 -49 -56 -219l-80 -352q-16 -72 -16 -113q0 -39 23.5 -63.5t62.5 -24.5q92 0 180 107q143 170 144 438q0 242 -161 399.5t-419 157.5q-334 0 -555 -205q-254 -236 -254 -596q0 -336 200.5 -538.5t530.5 -202.5q283 0 539 150l28 -70q-324 -180 -622 -180 q-350 0 -592 231q-229 219 -229 586zM748 469q0 -227 170 -227q106 0 215 135l84 430l-84 115q-29 4 -46 4q-143 0 -241 -130t-98 -327z" />
<glyph unicode="A" horiz-adv-x="1308" d="M-16 0v84l118 25l480 1282h135l491 -1282l123 -25v-84h-465v84l127 10l15 29l-148 391h-483l-146 -391l21 -29l133 -10v-84h-401zM412 608h413l-211 568z" />
<glyph unicode="B" horiz-adv-x="1236" d="M68 0v84l116 10l35 29v1128l-35 29l-116 12v82h522q469 0 469 -332q0 -233 -297 -313q182 -2 281.5 -89t99.5 -239q0 -195 -137.5 -298t-397.5 -103h-540zM403 102q74 -6 138 -6q209 0 305 68.5t96 222.5q0 274 -338 275q-80 0 -201 -13v-547zM403 752q27 -2 78 -2 q193 0 284 68.5t91 215.5q0 250 -336 250q-14 0 -54 -3t-63 -3v-526z" />
<glyph unicode="C" horiz-adv-x="1294" d="M88 688q0 319 195.5 515t515.5 196q184 0 405 -70v-315h-114l-31 186l-27 37q-117 53 -229 53q-231 0 -367.5 -157.5t-136.5 -430.5q0 -291 142.5 -454.5t392.5 -163.5q90 0 178 27l32 32l46 228h114v-324q-205 -72 -413 -72q-203 0 -349 82q-164 94 -259 262t-95 369z " />
<glyph unicode="D" horiz-adv-x="1419" d="M68 0v84l116 10l35 29v1128l-35 29l-116 12v82h505q362 0 559 -181t197 -505q0 -367 -256 -561q-98 -74 -215 -100.5t-285 -26.5h-505zM403 94h162q557 0 557 594q0 299 -138 445.5t-419 146.5h-162v-1186z" />
<glyph unicode="E" horiz-adv-x="1179" d="M68 0v84l116 10l35 29v1128l-35 29l-116 12v82h981v-299h-115l-29 174l-28 31h-474v-518h336l29 29l20 149h97v-451h-97l-20 148l-29 31h-336v-574h549l29 33l35 207h106v-334h-1054z" />
<glyph unicode="F" horiz-adv-x="1099" d="M51 1292v82h983v-319h-112l-31 194l-27 31h-461v-539h336l29 29l20 150h97v-453h-97l-20 149l-29 31h-336v-524l35 -29l146 -10v-84h-516v84l116 10l35 29v1128l-35 29z" />
<glyph unicode="G" horiz-adv-x="1421" d="M88 688q0 326 198.5 518.5t536.5 192.5q186 0 394 -60v-325h-115l-31 186l-29 37q-117 53 -233 53q-236 0 -373 -156.5t-137 -431.5q0 -289 142.5 -453.5t383.5 -164.5q94 0 209 27v426l-35 28l-145 10v84h512v-84l-113 -10l-34 -28v-490q-246 -72 -424 -72 q-207 0 -353 82q-166 94 -260 262t-94 369z" />
<glyph unicode="H" horiz-adv-x="1511" d="M68 0v84l116 10l35 29v1128l-35 29l-116 12v82h497v-82l-127 -12l-35 -29v-483h705v483l-35 29l-127 12v82h498v-82l-117 -12l-35 -29v-1128l35 -29l117 -10v-84h-498v84l127 10l35 29v551h-705v-551l35 -29l127 -10v-84h-497z" />
<glyph unicode="I" horiz-adv-x="663" d="M72 0v84l131 10l35 29v1128l-35 29l-131 12v82h518v-82l-131 -12l-35 -29v-1128l35 -29l131 -10v-84h-518z" />
<glyph unicode="J" horiz-adv-x="909" d="M25 25v342h114l49 -258l29 -27q35 -8 72 -8q143 0 204.5 107.5t61.5 334.5v735l-35 29l-137 12v82h518v-82l-127 -12l-35 -29v-727q0 -281 -106.5 -415t-339.5 -134q-127 1 -268 50z" />
<glyph unicode="K" horiz-adv-x="1251" d="M68 0v84l116 10l35 29v1128l-35 29l-116 12v82h497v-82l-127 -12l-35 -29v-555h78l455 555l-12 29l-115 12v82h426v-82l-135 -18l-430 -512l465 -668l149 -10v-84h-338v61l-391 551h-152v-489l35 -29l127 -10v-84h-497z" />
<glyph unicode="L" horiz-adv-x="1064" d="M55 0v84l129 10l35 29v1128l-35 29l-129 12v82h500v-82l-117 -12l-35 -29v-1157h463l29 33l35 246h106v-373h-981z" />
<glyph unicode="M" horiz-adv-x="1773" d="M61 1292v82h435v-55l385 -1028l389 1020v63h438v-82l-129 -12l-25 -29v-1128l25 -29l129 -10v-84h-489v84l135 10l20 29v1155l-485 -1278h-88l-467 1257v-1118l37 -39l125 -16v-84h-433v84l123 16l37 39v1112l-26 29z" />
<glyph unicode="N" horiz-adv-x="1460" d="M53 1292v82h385v-51l699 -1049v963l-37 37l-123 18v82h430v-82l-123 -18l-37 -37v-1237h-135l-780 1163v-1024l37 -39l123 -16v-84h-433v84l125 16l37 39v1112l-37 29z" />
<glyph unicode="O" horiz-adv-x="1497" d="M88 688q0 338 209 541q186 180 453 180q264 0 450 -180q211 -205 211 -541q0 -227 -104 -405q-86 -147 -232.5 -231.5t-324.5 -84.5q-268 0 -451 176q-211 205 -211 545zM301 688q0 -283 123 -447.5t326 -164.5q201 0 323.5 165t122.5 447.5t-123 446t-323 163.5 q-203 0 -326 -162.5t-123 -447.5z" />
<glyph unicode="P" horiz-adv-x="1142" d="M51 1292v82h467q301 0 435 -94t134 -324q0 -199 -142 -319.5t-388 -120.5q-47 0 -154 10v-403l35 -29l146 -10v-84h-516v84l116 10l35 29v1128l-35 29zM403 625q98 -10 136 -11q174 0 266 88.5t92 258.5q0 164 -95 241.5t-292 77.5q-70 0 -107 -4v-651z" />
<glyph unicode="Q" horiz-adv-x="1497" d="M80 690q0 340 215 543q188 178 455 178q268 0 456 -178q213 -203 213 -543q0 -287 -153.5 -478.5t-417.5 -234.5q10 -243 289 -243h2q90 0 192 22v-84q-153 -32 -281 -32h-8q-389 0 -389 337q-264 41 -418.5 232.5t-154.5 480.5zM297 690q0 -281 125 -445.5t328 -164.5 q205 0 328.5 164t123.5 446.5t-124 446t-328.5 163.5t-328.5 -162.5t-124 -447.5z" />
<glyph unicode="R" horiz-adv-x="1323" d="M68 0v84l116 10l35 29v1128l-35 29l-116 12v82h522q250 0 371.5 -90t121.5 -278q0 -266 -331 -340q152 -41 211 -138q33 -53 58.5 -162.5t37.5 -140.5q33 -88 89 -116.5t177 -28.5h18v-78q-92 -18 -159 -18q-139 0 -207 59q-35 31 -59.5 75t-36 81t-27.5 99t-27 95 q-41 125 -111.5 173t-209.5 48q-29 0 -103 -4v-487l35 -29l117 -10v-84h-487zM403 709q63 -2 113 -2q186 0 274.5 66.5t88.5 215.5q0 156 -91.5 223.5t-285.5 67.5h-99v-571z" />
<glyph unicode="S" d="M123 41v360h121l24 -235l27 -35q90 -47 229 -47q145 0 227.5 67.5t82.5 178.5q0 109 -62.5 160t-230.5 122q-33 12 -49 21q-188 82 -267.5 157.5t-79.5 215.5q0 176 129 284.5t344 108.5q170 0 349 -58v-317h-107l-31 195l-30 34q-78 43 -185 43q-129 0 -203.5 -67.5 t-74.5 -179.5q0 -96 63.5 -148.5t223.5 -120.5q14 -6 61 -24.5t68.5 -27.5t57.5 -27.5t65.5 -40t56.5 -48.5q90 -90 90 -225q0 -184 -143.5 -298t-386.5 -114q-217 0 -369 66z" />
<glyph unicode="T" horiz-adv-x="1222" d="M33 1059v315h1157v-315h-113l-28 190l-29 31h-315v-1157l36 -29l138 -10v-84h-535v84l137 10l37 29v1157h-315l-29 -31l-29 -190h-112z" />
<glyph unicode="U" horiz-adv-x="1421" d="M51 1292v82h502v-82l-127 -12l-37 -29v-741q0 -211 86 -309.5t281 -98.5q193 0 278.5 98.5t85.5 309.5v727l-39 37l-123 18v82h433v-82l-123 -18l-37 -37v-745q0 -129 -17.5 -212t-72.5 -149q-129 -156 -424 -156t-424 156q-55 68 -72.5 149.5t-17.5 211.5v759l-35 29z " />
<glyph unicode="V" horiz-adv-x="1265" d="M-47 1292v82h477v-82l-119 -12l-22 -29l385 -1032l370 1032l-20 29l-127 12v82h408v-82l-127 -24l-471 -1278h-142l-481 1278z" />
<glyph unicode="W" horiz-adv-x="1900" d="M0 1292v82h459v-82l-129 -16l-17 -29l265 -946l329 1073h144l335 -1095l248 960l-22 29l-137 24v82h423v-82l-137 -28l-325 -1264h-140l-346 1120l-340 -1120h-137l-344 1264z" />
<glyph unicode="X" horiz-adv-x="1228" d="M-18 0v84l135 27l411 575l-370 580l-135 26v82h493v-82l-123 -12l-16 -25l268 -421l291 413l-18 27l-119 18v82h418v-82l-132 -20l-374 -535l397 -628l139 -25v-84h-518v84l137 14l15 29l-289 465l-324 -459l13 -37l137 -12v-84h-436z" />
<glyph unicode="Y" horiz-adv-x="1200" d="M-27 1292v82h476v-82l-117 -12l-21 -23l314 -563l344 547l-19 29l-125 22v82h418v-82l-125 -26l-426 -682v-461l33 -29l139 -10v-84h-530v84l139 10l33 29v434l-408 715z" />
<glyph unicode="Z" horiz-adv-x="1200" d="M92 0v84l776 1192h-546l-39 -27l-33 -192h-113v317h957v-86l-779 -1188h619l22 27l37 244h111v-371h-1012z" />
<glyph unicode="[" horiz-adv-x="862" d="M285 -270v1720h485v-88h-324v-1546h324v-86h-485z" />
<glyph unicode="\" horiz-adv-x="985" d="M27 1374h125l876 -1564h-125z" />
<glyph unicode="]" horiz-adv-x="862" d="M94 -184h324v1546h-324v88h484v-1722h-484v88z" />
<glyph unicode="^" horiz-adv-x="2048" d="M412 897l522 565h178l520 -565h-92l-518 436l-520 -436h-90z" />
<glyph unicode="_" horiz-adv-x="1024" d="M0 -365h1024v-118h-1024v118z" />
<glyph unicode="`" horiz-adv-x="1024" d="M213 1507h203l198 -389h-102z" />
<glyph unicode="a" horiz-adv-x="1038" d="M86 248q0 150 128 220.5t470 152.5v65q0 125 -40 177t-148 52q-76 0 -156 -32v-172h-141q-35 0 -49.5 13t-14.5 50q0 96 112.5 164t301.5 68q162 0 233.5 -70t71.5 -225v-594l37 -33l108 -10v-74h-288l-27 119q-195 -133 -336 -133q-121 0 -191.5 72.5t-70.5 189.5z M266 264q0 -76 44 -122t120 -46q94 0 254 92v361q-236 -66 -327 -122.5t-91 -162.5z" />
<glyph unicode="b" horiz-adv-x="1103" d="M16 1370v64l252 73h78v-573q150 72 281 72q182 0 293.5 -129t111.5 -338q0 -264 -150.5 -401.5t-443.5 -137.5h-262v1370h-160zM346 94q63 -2 113 -2q201 0 295 98.5t94 309.5q0 190 -84 293.5t-238 103.5q-72 0 -180 -33v-770z" />
<glyph unicode="c" horiz-adv-x="913" d="M76 494q0 229 135 370.5t350 141.5q145 0 226 -55.5t81 -145.5q0 -49 -31.5 -79t-82.5 -30q-45 0 -92 31v168q-47 29 -99 29q-133 0 -217 -113t-84 -303q0 -188 94.5 -295t253.5 -107q131 0 260 87v-107q-172 -100 -333 -100q-209 0 -335 140.5t-126 367.5z" />
<glyph unicode="d" horiz-adv-x="1157" d="M74 461q0 246 147.5 396.5t380.5 150.5q82 0 182 -23v385h-157v64l250 73h77v-1390l35 -33l98 -10v-74h-303v106q-155 -124 -312 -124h-3q-170 0 -282.5 133t-112.5 346zM254 496q0 -178 84 -281.5t223 -103.5q109 0 223 71v703q-111 33 -180 33q-156 0 -253 -116 t-97 -306z" />
<glyph unicode="e" horiz-adv-x="1005" d="M76 485q0 231 133 376t340 145q168 0 268.5 -107.5t100.5 -296.5q0 -41 -3 -63h-663v-23q0 -195 93 -306.5t251 -111.5q143 0 322 119v-113q-183 -122 -383 -122h-3q-203 0 -329.5 139t-126.5 364zM262 625h473v32q0 125 -55 190.5t-158 65.5q-100 0 -176 -80.5 t-84 -207.5z" />
<glyph unicode="f" horiz-adv-x="657" d="M59 0v74l109 10l37 33v745h-131v66l131 30v23q0 250 115.5 396.5t300.5 146.5q70 0 114.5 -34t44.5 -83q0 -80 -84 -102l-186 122q-133 -61 -133 -319v-150h285v-96h-287v-745l35 -33l127 -10v-74h-478z" />
<glyph unicode="g" horiz-adv-x="1071" d="M82 -182q0 98 58.5 166.5t162.5 87.5q-20 47 -20 92q0 78 98 194q-117 27 -185.5 110t-68.5 200q0 150 108.5 244t288.5 94q117 0 232 -58h293v-96h-226q57 -88 58 -190q0 -139 -107.5 -229.5t-284.5 -90.5h-34q-23 -45 -23 -92q0 -4 4 -49l197 -31q186 -29 267 -85 t81 -167q0 -129 -123 -229q-166 -135 -405 -135q-176 0 -273.5 70.5t-97.5 193.5zM246 -139q0 -90 77.5 -151.5t200.5 -61.5q133 0 219 64.5t86 152.5q0 78 -45 107.5t-163 52.5l-199 36q-84 -27 -130 -79.5t-46 -120.5zM303 674q0 -115 55.5 -183.5t145.5 -68.5t145.5 68.5 t55.5 183t-55.5 183.5t-145.5 69t-145.5 -67.5t-55.5 -184.5z" />
<glyph unicode="h" horiz-adv-x="1155" d="M39 1370v64l250 73h78v-624q223 123 331 123q133 0 204 -79t71 -233v-577l37 -33l108 -10v-74h-446v74l96 10l35 33v542q0 113 -47 162t-160 49q-96 0 -229 -67v-686l36 -33l97 -10v-74h-449v74l111 10l35 33v1253h-158z" />
<glyph unicode="i" horiz-adv-x="573" d="M72 0v74l108 10l35 33v741h-143v64l235 73h78v-878l37 -33l110 -10v-74h-460zM197 1331q0 51 34.5 85t84 34t84 -35t34.5 -84t-34.5 -83t-84 -34t-84 34t-34.5 83z" />
<glyph unicode="j" horiz-adv-x="544" d="M-160 -336q0 74 76 107l199 -121q108 35 108 312v5v891h-145v64l237 73h78v-823q0 -190 -20.5 -295.5t-96.5 -189.5q-123 -133 -294 -133q-66 0 -104 30.5t-38 79.5zM180 1331q0 51 35 85t84 34t84 -35t35 -84t-35 -83t-84 -34t-84 34t-35 83z" />
<glyph unicode="k" horiz-adv-x="1058" d="M39 1370v64l250 73h78v-985h39l313 350l-14 29l-93 8v76h389v-76l-131 -16l-280 -297l360 -508l131 -10v-78h-319v68l-277 397h-118v-348l36 -33l97 -10v-74h-449v74l111 10l35 33v1253h-158z" />
<glyph unicode="l" horiz-adv-x="577" d="M55 1370v64l250 73h78v-1390l37 -33l117 -10v-74h-480v74l121 10l35 33v1253h-158z" />
<glyph unicode="m" horiz-adv-x="1726" d="M61 0v74l111 10l35 33v741h-146v64l238 73h78v-112q209 123 328 123q154 0 225 -138q233 137 352 138q123 0 193.5 -81t70.5 -231v-577l35 -33l109 -10v-74h-447v74l96 10l37 33v542q0 211 -184 211q-92 0 -231 -67v-686l36 -33l97 -10v-74h-437v74l99 10l35 33v542 q0 211 -181 211q-98 0 -233 -67v-686l35 -33l98 -10v-74h-449z" />
<glyph unicode="n" horiz-adv-x="1163" d="M61 0v74l111 10l35 33v741h-146v64l238 73h78v-112q223 123 330 123q135 0 205.5 -79t70.5 -233v-577l35 -33l110 -10v-74h-448v74l98 10l35 33v542q0 113 -47 162t-160 49q-98 0 -229 -67v-686l35 -33l98 -10v-74h-449z" />
<glyph unicode="o" horiz-adv-x="1103" d="M76 494q0 227 133 369.5t342 142.5t343 -143.5t134 -369t-135 -368.5t-342 -143t-341 143.5t-134 368.5zM268 494q0 -195 79 -309.5t204 -114.5q127 0 206 113.5t79 310.5q0 195 -79 309.5t-206 114.5t-205 -113.5t-78 -310.5z" />
<glyph unicode="p" horiz-adv-x="1128" d="M47 -373l111 11l35 32v1188h-146v64l238 73h77v-112q162 123 302 123q170 0 281.5 -133.5t111.5 -346.5q0 -242 -138.5 -387t-365.5 -145q-78 0 -191 18v-342l35 -32l131 -11v-73h-481v73zM362 119q98 -33 175 -33q152 0 246 112.5t94 301.5q0 174 -82 275.5t-217 101.5 q-94 0 -216 -70v-688z" />
<glyph unicode="q" horiz-adv-x="1087" d="M76 471q0 246 153.5 391.5t417.5 145.5q125 0 293 -35q-2 -33 -4 -68t-3 -54.5t-1 -27.5v-1153l37 -35l108 -8v-73h-479v73l129 8l35 35v398q-156 -74 -283 -74q-180 0 -291.5 130t-111.5 347zM260 498q0 -188 83 -292t228 -104q68 0 191 31v764q-96 23 -156 23 q-160 0 -253 -111.5t-93 -310.5z" />
<glyph unicode="r" horiz-adv-x="782" d="M61 0v74l109 10l37 33v741h-146v64l238 73h78v-192q98 102 219 198q16 4 51 5q61 0 123 -27v-176h-65q-41 49 -105 49q-96 0 -223 -150v-585l35 -33l143 -10v-74h-494z" />
<glyph unicode="s" horiz-adv-x="819" d="M86 25v266h98l25 -174q86 -49 174 -49t140 46t52 119.5t-46 112.5t-162 92q-141 63 -203 123t-62 158q0 135 94.5 211t268.5 76q137 0 240 -45v-232h-101l-16 145q-80 43 -152 44q-82 0 -126 -39t-44 -109q0 -61 40 -101t134 -85q16 -8 53 -25.5t58.5 -28t51.5 -29 t54 -36.5q78 -61 78 -176q0 -143 -101.5 -225t-281.5 -82q-149 0 -266 43z" />
<glyph unicode="t" horiz-adv-x="684" d="M51 862v64l135 59l88 191h76v-218h312v-96h-312v-540q0 -123 34 -173.5t136 -50.5q66 0 142 17v-76q-141 -45 -269 -45q-123 0 -168 47t-45 160v661h-129z" />
<glyph unicode="u" horiz-adv-x="1165" d="M53 866v64l238 76h78v-678q0 -111 48 -164t150 -53q111 0 238 61v694h-146v64l238 76h78v-889l37 -33l96 -10v-74h-303v115q-188 -135 -332 -135q-133 0 -203.5 79.5t-70.5 233.5v573h-146z" />
<glyph unicode="v" horiz-adv-x="1011" d="M-10 909v76h444v-76l-108 -8l-25 -33l240 -669l262 669l-17 33l-110 8v76h362v-76l-120 -16l-359 -893h-115l-329 897z" />
<glyph unicode="w" horiz-adv-x="1579" d="M-4 909v76h444v-76l-108 -8l-25 -33l187 -665l274 782h125l242 -782l208 665l-16 33l-110 8v76h362v-76l-115 -16l-293 -893h-127l-247 776l-277 -776h-127l-272 897z" />
<glyph unicode="x" horiz-adv-x="1030" d="M25 0v76l116 16l295 395l-274 400l-125 22v76h440v-76l-94 -12l-10 -20l172 -269l186 262l-16 27l-99 12v76h369v-76l-115 -20l-270 -359l301 -438l123 -16v-76h-436v76l86 14l10 16l-190 306l-209 -297l10 -25l117 -14v-76h-387z" />
<glyph unicode="y" horiz-adv-x="1013" d="M-2 909v76h444v-76l-108 -8l-25 -33l246 -637l256 637l-16 33l-111 8v76h365v-76l-119 -16l-410 -995q-74 -176 -151.5 -260t-175.5 -84q-63 0 -102.5 31.5t-39.5 82.5q0 61 53 111l197 -78q92 100 166 307l-344 889z" />
<glyph unicode="z" horiz-adv-x="958" d="M92 0v102l547 789h-379l-29 -33l-22 -158h-96v285h739v-78l-567 -813h440l31 33l22 174h105v-301h-791z" />
<glyph unicode="{" horiz-adv-x="995" d="M133 549v90q18 -2 53 -2q137 0 191.5 60.5t54.5 203.5v209q0 174 93 252t304 78h27v-76q-152 -4 -206 -56.5t-54 -189.5v-166q0 -164 -58.5 -245.5t-209.5 -112.5q143 -33 205.5 -113t62.5 -233v-170q0 -162 46 -216.5t214 -56.5v-79h-51q-217 0 -295 79.5t-78 294.5v174 q0 154 -55 215.5t-197 61.5q-6 0 -22.5 -1t-24.5 -1z" />
<glyph unicode="|" horiz-adv-x="1024" d="M449 -483v2048h126v-2048h-126z" />
<glyph unicode="}" horiz-adv-x="995" d="M131 -195q168 2 214 56.5t46 216.5v170q0 154 62.5 233.5t205.5 112.5q-152 31 -210 112.5t-58 245.5v166q0 137 -54 189.5t-206 56.5v76h27q211 0 304 -78t93 -252v-209q0 -143 54.5 -203.5t191.5 -60.5q35 0 53 2v-90q-8 0 -24.5 1t-22.5 1q-141 0 -196.5 -61.5 t-55.5 -215.5v-174q0 -215 -79 -294.5t-296 -79.5h-49v79z" />
<glyph unicode="~" horiz-adv-x="1705" d="M178 461v133q211 145 387 145q106 0 291 -65q10 -4 40 -14.5t43 -15.5t39 -13t42 -12.5t38.5 -8.5t44 -6t42.5 -2q162 0 385 156v-131q-201 -143 -387 -144q-86 0 -191 35q-29 10 -99.5 35t-104 35t-87 21.5t-98.5 11.5q-158 0 -385 -160z" />
<glyph unicode="&#xa1;" horiz-adv-x="692" d="M229 1282q0 47 34 82t83 35q47 0 82 -34t35 -83t-35 -83t-82 -34q-49 0 -83 34t-34 83zM233 129q0 51 7 119l57 782h98l58 -782q6 -86 6 -119q0 -147 -113 -147t-113 147z" />
<glyph unicode="&#xa2;" d="M131 504q0 209 114.5 348t313.5 172v207h94v-201h29q127 0 268 -47v-301h-92l-33 213q-68 41 -157 41h-15v-842q96 0 172 39l33 223h92v-311q-113 -43 -272 -43h-25v-203h-94v207q-197 27 -312.5 161t-115.5 337zM307 506q0 -158 67.5 -266.5t184.5 -141.5v832 q-121 -35 -186.5 -144.5t-65.5 -279.5z" />
<glyph unicode="&#xa3;" d="M76 0v117q137 39 182 134t45 302v72h-147v96h145q-4 86 -4 125q0 250 80 371q55 82 147 132t195 50q143 0 232 -60.5t89 -148.5q0 -47 -33.5 -79t-86.5 -32q-31 0 -66 8v193q-55 18 -106 18q-154 0 -215.5 -110.5t-61.5 -362.5q0 -68 2 -104h385v-96h-385v-27 q0 -319 -205 -446l4 -7q96 10 140 11h624v-156h-960z" />
<glyph unicode="&#xa4;" horiz-adv-x="1241" d="M86 424l207 205q-88 117 -88 256t88 256l-207 205l72 73l207 -207q119 90 256 91q141 0 260 -91l204 207l72 -73l-205 -205q86 -113 86 -256q0 -141 -86 -256l205 -205l-72 -74l-204 207q-113 -88 -260 -88q-143 0 -256 88l-207 -207zM309 887q0 -131 91.5 -223.5 t222.5 -92.5q129 0 221 93.5t92 222.5t-91 221t-222 92t-222.5 -92t-91.5 -221z" />
<glyph unicode="&#xa5;" d="M-12 1292v82h434v-82l-107 -12l-18 -23l287 -561l313 545l-18 29l-113 22v82h379v-82l-113 -26l-225 -394h295v-86h-350l-121 -213h471v-86h-463v-364l35 -29l147 -10v-84h-528v84l141 10l39 29v364h-444v86h442l-109 213h-333v86h278l-203 400z" />
<glyph unicode="&#xa6;" horiz-adv-x="1024" d="M449 -350v758h126v-758h-126zM449 674v758h126v-758h-126z" />
<glyph unicode="&#xa7;" horiz-adv-x="1024" d="M129 588q0 215 242 319q-106 53 -156.5 116.5t-50.5 152.5q0 141 101.5 217.5t291.5 76.5q133 0 274 -47v-264h-92l-20 164q-111 61 -197 61q-90 0 -148.5 -50t-58.5 -124q0 -25 6.5 -45t22.5 -39.5t30.5 -32t47.5 -31t53.5 -28.5t67.5 -32.5t73 -34.5q279 -137 279 -340 q0 -106 -66.5 -195.5t-183.5 -136.5q213 -96 213 -272q0 -135 -103.5 -222.5t-271.5 -87.5q-143 0 -301 64l-4 264h101l26 -184q98 -53 197 -54q94 0 152.5 48.5t58.5 121.5q0 23 -4 42.5t-16.5 37t-21.5 31.5t-34 30.5t-39 27t-49 27.5t-53.5 25.5t-63.5 30t-67 31.5 q-236 111 -236 332zM279 633q0 -98 68.5 -165t223.5 -136q172 113 172 250q0 180 -286 286q-178 -79 -178 -235z" />
<glyph unicode="&#xa8;" horiz-adv-x="1024" d="M217 1311q0 45 31 74.5t74 29.5t72.5 -29.5t29.5 -74.5q0 -43 -29.5 -73t-72.5 -30t-74 30t-31 73zM598 1311q0 45 30.5 74.5t73.5 29.5t73 -29.5t30 -74.5q0 -43 -30 -73t-73 -30t-73.5 30t-30.5 73z" />
<glyph unicode="&#xa9;" horiz-adv-x="1843" d="M137 696q0 322 230 555q111 113 257 174.5t304 61.5q156 0 303 -62.5t258 -175.5q225 -229 225 -561q0 -154 -62.5 -299t-178.5 -260q-227 -223 -558 -223q-315 0 -546.5 231t-231.5 559zM225 696q0 -291 207 -497q211 -207 494 -207q291 0 491 207q209 215 209 497 q0 293 -207 500q-205 205 -491 205q-293 0 -496 -207q-207 -213 -207 -498zM453 692q0 215 139 349.5t366 134.5q139 0 289 -48v-245h-88l-31 153q-76 45 -159 45q-145 0 -241.5 -109.5t-96.5 -277.5t94 -279.5t233 -111.5q61 0 175 41l26 172h88v-256q-147 -51 -301 -51 q-217 0 -355 135t-138 348z" />
<glyph unicode="&#xaa;" horiz-adv-x="778" d="M66 858q0 102 96 152.5t352 107.5v45q0 88 -29.5 125t-111.5 37q-53 0 -117 -22v-121h-106q-27 0 -37.5 9t-10.5 36q0 68 85 115t225 47q121 0 175 -49.5t54 -157.5v-416l27 -23l82 -8v-51h-218l-18 84q-145 -94 -252 -94q-90 0 -143 51t-53 133zM201 868 q0 -53 32.5 -84.5t90.5 -31.5q70 0 190 63v254q-176 -47 -244.5 -87t-68.5 -114z" />
<glyph unicode="&#xab;" horiz-adv-x="905" d="M80 410v163l336 273v-135l-240 -219l240 -222v-133zM485 410v163l334 273v-135l-239 -219l239 -222v-133z" />
<glyph unicode="&#xac;" horiz-adv-x="1705" d="M254 741v117h1198v-502h-115v385h-1083z" />
<glyph unicode="&#xad;" horiz-adv-x="653" d="M96 424v137h461v-137h-461z" />
<glyph unicode="&#xae;" horiz-adv-x="1843" d="M137 696q0 322 230 555q111 113 257 174.5t304 61.5q156 0 303 -62.5t258 -175.5q225 -229 225 -561q0 -154 -62.5 -299t-178.5 -260q-227 -223 -558 -223q-315 0 -546.5 231t-231.5 559zM227 696q0 -293 205 -497q211 -207 494 -207q291 0 491 207q207 213 207 497 q0 295 -205 500q-207 207 -491 207q-291 0 -496 -209q-205 -211 -205 -498zM520 1077v70h432q332 0 332 -223q0 -86 -63.5 -145.5t-184.5 -86.5q94 -14 148 -80q20 -25 33.5 -55.5t23.5 -66t16 -50.5q27 -66 68 -89t131 -23v-74q-86 -16 -127 -16q-94 0 -162 59 q-29 25 -47 61.5t-36.5 92t-28.5 79.5q-31 68 -75 92.5t-128 24.5q-37 0 -59 -2v-307l129 -14v-76h-392v74l109 14v721zM793 727q18 -2 51 -2q262 0 262 170q0 84 -66.5 130t-193.5 46q-35 0 -53 -2v-342z" />
<glyph unicode="&#xaf;" horiz-adv-x="1024" d="M209 1245v123h616v-123h-616z" />
<glyph unicode="&#xb0;" horiz-adv-x="673" d="M55 1171.5q0 118.5 83 200.5t200 82t200 -83t83 -199.5t-83 -199.5t-202 -83t-200 82t-81 200.5zM135 1171q0 -86 59.5 -144t143.5 -58q86 0 143.5 59t57.5 143t-58.5 142.5t-142.5 58.5t-143.5 -58.5t-59.5 -142.5z" />
<glyph unicode="&#xb1;" horiz-adv-x="1705" d="M254 41v117h1198v-117h-1198zM254 719v117h541v344h118v-344h539v-117h-539v-344h-118v344h-541z" />
<glyph unicode="&#xb2;" horiz-adv-x="751" d="M57 549v78q258 190 361.5 296.5t103.5 217.5q0 88 -48 136t-132 48q-63 0 -121 -29v-131q-29 -18 -59 -18q-76 0 -76 67.5t83 121t204 53.5q129 0 204.5 -64.5t75.5 -169.5q0 -109 -107.5 -219.5t-355.5 -290.5h408l25 105h59v-201h-625z" />
<glyph unicode="&#xb3;" horiz-adv-x="751" d="M55 670q0 27 21.5 45t54.5 18q20 0 41 -6l41 -104q51 -29 115 -29q92 0 152.5 55.5t60.5 136.5q0 154 -201 154q-45 0 -72 -4v72h29q102 0 156.5 42t54.5 115.5t-47 116.5t-125 43q-74 0 -129 -35v-116q-23 -14 -55.5 -14.5t-53 18t-20.5 47.5q0 63 82 113.5t205 50.5 q121 0 193.5 -56.5t72.5 -150.5q0 -145 -203 -199q113 -8 175.5 -61.5t62.5 -137.5q0 -104 -95.5 -176.5t-246.5 -72.5q-115 0 -192 43t-77 92z" />
<glyph unicode="&#xb4;" horiz-adv-x="1024" d="M434 1118l199 389h203l-299 -389h-103z" />
<glyph unicode="&#xb5;" horiz-adv-x="1120" d="M-80 -330q0 35 23.5 123t67.5 252t79 326l109 514h147l-104 -492q-12 -61 -13 -112q0 -82 42 -128.5t118 -46.5q199 0 258 269l111 510h149l-114 -531q-20 -98 -21 -137q0 -49 25.5 -78.5t66.5 -29.5q72 0 117 69q14 23 26.5 53.5t18.5 51t14.5 35t20.5 14.5q27 0 26 -37 q0 -59 -40 -150q-74 -164 -230 -163q-68 0 -108.5 50t-40.5 140v23q-92 -217 -281 -218q-195 0 -223 216q-20 -104 -35.5 -218t-23 -175.5t-19.5 -117t-31.5 -78t-54.5 -22.5q-37 0 -58.5 23.5t-21.5 64.5z" />
<glyph unicode="&#xb6;" horiz-adv-x="991" d="M53 971q0 213 117 308t367 95h401v-74l-127 -20v-1442h-100v1452h-156v-715h-37q-465 1 -465 396z" />
<glyph unicode="&#xb7;" horiz-adv-x="569" d="M154 686q0 55 38.5 93t92 38t91.5 -38t38 -93q0 -53 -38 -91t-91.5 -38t-92 38t-38.5 91z" />
<glyph unicode="&#xb8;" horiz-adv-x="1024" d="M369 -362q61 -16 120 -17q66 0 102 23.5t36 64.5q0 76 -103 76q-14 0 -43 -4v219h76v-125q18 2 41 2q72 0 113 -39t41 -108q0 -86 -64.5 -136.5t-177.5 -50.5q-66 0 -141 21v74z" />
<glyph unicode="&#xb9;" horiz-adv-x="751" d="M129 1257v52l293 80h37v-764l16 -19l146 -6v-51h-453v53l156 6l16 23v659z" />
<glyph unicode="&#xba;" horiz-adv-x="827" d="M57 1030q0 160 100.5 259.5t256 99.5t257 -100.5t101.5 -258.5t-101.5 -258t-257 -100t-256 99t-100.5 259zM201 1030q0 -137 59 -217t154 -80q96 0 154.5 80t58.5 217t-59.5 217t-153.5 80q-96 0 -154.5 -80t-58.5 -217z" />
<glyph unicode="&#xbb;" horiz-adv-x="905" d="M94 137v133l240 222l-240 219v135l334 -273v-163zM498 137v133l239 222l-239 219v135l336 -273v-163z" />
<glyph unicode="&#xbc;" horiz-adv-x="1775" d="M121 1266v47l278 73h37v-710l17 -19l139 -4v-49h-432v49l147 6l17 21v616zM387 0l875 1374h124l-874 -1374h-125zM1094 223v74l440 479h74v-479h147v-74h-147v-266h-99v266h-415zM1190 297h319v354z" />
<glyph unicode="&#xbd;" horiz-adv-x="1775" d="M121 1266v47l278 73h37v-710l17 -19l139 -4v-49h-432v49l147 6l17 21v616zM387 0l875 1374h124l-874 -1374h-125zM1112 0v72q246 178 345 277.5t99 201.5q0 82 -45 128t-127 46q-59 0 -114 -29v-121q-29 -18 -58 -18q-72 0 -71 66q0 61 77.5 110t194.5 49 q125 0 196.5 -58t71.5 -157q0 -102 -101 -204.5t-339 -272.5h387l25 98h57v-188h-598z" />
<glyph unicode="&#xbe;" horiz-adv-x="1777" d="M53 717q0 27 20.5 43t51.5 16q18 0 39 -6l41 -96q53 -29 108 -29q88 0 145.5 52.5t57.5 129.5q0 68 -49 106t-141 38q-33 0 -70 -6v67h29q96 0 147 39t51 109q0 68 -44 108.5t-120 40.5q-66 0 -122 -33v-108q-20 -14 -52 -14q-33 0 -51 16t-18 45q0 59 76.5 105t193.5 46 t186.5 -52t69.5 -140q0 -137 -192 -184q106 -8 165.5 -57.5t59.5 -127.5q0 -98 -90 -165.5t-236 -67.5q-109 0 -182.5 39t-73.5 86zM387 0l875 1374h124l-874 -1374h-125zM1094 223v74l440 479h74v-479h147v-74h-147v-266h-99v266h-415zM1190 297h319v354z" />
<glyph unicode="&#xbf;" horiz-adv-x="995" d="M123 352q0 143 92 250t283 189v239h106v-299q-295 -111 -295 -366q0 -137 74 -213t211 -76h14l80 203q12 2 37 2q59 0 92 -29t33 -80q0 -80 -84 -135t-217 -55q-195 0 -310.5 101t-115.5 269zM434 1282q0 47 34 82t83 35q47 0 82 -34t35 -83t-35 -83t-82 -34 q-49 0 -83 34t-34 83z" />
<glyph unicode="&#xc0;" horiz-adv-x="1308" d="M-16 0v84l118 25l480 1282h135l491 -1282l123 -25v-84h-465v84l127 10l15 29l-148 391h-483l-146 -391l21 -29l133 -10v-84h-401zM356 1911h203l199 -389h-103zM412 608h413l-211 568z" />
<glyph unicode="&#xc1;" horiz-adv-x="1308" d="M-16 0v84l118 25l480 1282h135l491 -1282l123 -25v-84h-465v84l127 10l15 29l-148 391h-483l-146 -391l21 -29l133 -10v-84h-401zM412 608h413l-211 568zM578 1522l198 389h203l-299 -389h-102z" />
<glyph unicode="&#xc2;" horiz-adv-x="1308" d="M-16 0v84l118 25l480 1282h135l491 -1282l123 -25v-84h-465v84l127 10l15 29l-148 391h-483l-146 -391l21 -29l133 -10v-84h-401zM365 1522l225 389h131l225 -389h-110l-181 288l-178 -288h-112zM412 608h413l-211 568z" />
<glyph unicode="&#xc3;" horiz-adv-x="1308" d="M-16 0v84l118 25l480 1282h135l491 -1282l123 -25v-84h-465v84l127 10l15 29l-148 391h-483l-146 -391l21 -29l133 -10v-84h-401zM342 1577v20q0 225 174 226q61 0 158.5 -53.5t124.5 -53.5q84 0 84 127v10h84q0 -6 1 -16t1 -14q0 -98 -49.5 -157.5t-122.5 -59.5 q-70 0 -171.5 53t-123.5 53q-33 0 -53.5 -29.5t-20.5 -80.5q0 -4 1 -12.5t1 -12.5h-88zM412 608h413l-211 568z" />
<glyph unicode="&#xc4;" horiz-adv-x="1308" d="M-16 0v84l118 25l480 1282h135l491 -1282l123 -25v-84h-465v84l127 10l15 29l-148 391h-483l-146 -391l21 -29l133 -10v-84h-401zM360 1714q0 45 31 75t74 30t72.5 -30t29.5 -75q0 -43 -29.5 -72.5t-72.5 -29.5t-74 29.5t-31 72.5zM412 608h413l-211 568zM741 1714 q0 45 31 75t74 30t72.5 -30t29.5 -75q0 -43 -29.5 -72.5t-72.5 -29.5t-74 29.5t-31 72.5z" />
<glyph unicode="&#xc5;" horiz-adv-x="1308" d="M-16 0v84l118 25l480 1282h135l491 -1282l123 -25v-84h-465v84l127 10l15 29l-148 391h-483l-146 -391l21 -29l133 -10v-84h-401zM387 1732.5q0 102.5 68.5 171t171 68.5t172 -69.5t69.5 -169.5q0 -102 -69.5 -172t-171.5 -70q-100 0 -170 69.5t-70 172zM412 608h413 l-211 568zM479 1731q0 -61 44 -104.5t106 -43.5q63 0 105 43t42 105q0 63 -42 106t-105 43q-61 0 -105.5 -43t-44.5 -106z" />
<glyph unicode="&#xc6;" horiz-adv-x="1773" d="M-115 0v84l117 18l715 1149l-19 29l-118 12v82h1060v-299h-112l-29 174l-29 31h-421v-518h282l31 29l20 149h95v-451h-95l-20 148l-31 31h-282v-574h495l31 33l33 207h106v-334h-993v84l117 10l34 29v391h-477l-245 -391l10 -29l131 -10v-84h-406zM449 610h423v674z" />
<glyph unicode="&#xc7;" horiz-adv-x="1294" d="M88 688q0 319 195.5 515t515.5 196q184 0 405 -70v-315h-114l-31 186l-27 37q-117 53 -229 53q-231 0 -367.5 -157.5t-136.5 -430.5q0 -291 142.5 -454.5t392.5 -163.5q90 0 178 27l32 32l46 228h114v-324q-205 -72 -413 -72q-203 0 -349 82q-164 94 -259 262t-95 369z M612 -362q61 -16 121 -17q66 0 101.5 23.5t35.5 64.5q0 76 -102 76q-14 0 -43 -4v219h76v-125q18 2 41 2q72 0 112.5 -39t40.5 -108q0 -86 -64.5 -136.5t-176.5 -50.5q-66 0 -142 21v74z" />
<glyph unicode="&#xc8;" horiz-adv-x="1179" d="M68 0v84l116 10l35 29v1128l-35 29l-116 12v82h981v-299h-115l-29 174l-28 31h-474v-518h336l29 29l20 149h97v-451h-97l-20 148l-29 31h-336v-574h549l29 33l35 207h106v-334h-1054zM291 1911h203l198 -389h-102z" />
<glyph unicode="&#xc9;" horiz-adv-x="1179" d="M68 0v84l116 10l35 29v1128l-35 29l-116 12v82h981v-299h-115l-29 174l-28 31h-474v-518h336l29 29l20 149h97v-451h-97l-20 148l-29 31h-336v-574h549l29 33l35 207h106v-334h-1054zM512 1522l199 389h202l-299 -389h-102z" />
<glyph unicode="&#xca;" horiz-adv-x="1179" d="M68 0v84l116 10l35 29v1128l-35 29l-116 12v82h981v-299h-115l-29 174l-28 31h-474v-518h336l29 29l20 149h97v-451h-97l-20 148l-29 31h-336v-574h549l29 33l35 207h106v-334h-1054zM299 1522l225 389h131l226 -389h-111l-180 288l-178 -288h-113z" />
<glyph unicode="&#xcb;" horiz-adv-x="1179" d="M68 0v84l116 10l35 29v1128l-35 29l-116 12v82h981v-299h-115l-29 174l-28 31h-474v-518h336l29 29l20 149h97v-451h-97l-20 148l-29 31h-336v-574h549l29 33l35 207h106v-334h-1054zM295 1714q0 45 30.5 75t73.5 30t73 -30t30 -75q0 -43 -30 -72.5t-73 -29.5t-73.5 29.5 t-30.5 72.5zM676 1714q0 45 30.5 75t73.5 30t73 -30t30 -75q0 -43 -30 -72.5t-73 -29.5t-73.5 29.5t-30.5 72.5z" />
<glyph unicode="&#xcc;" horiz-adv-x="663" d="M33 1911h203l198 -389h-102zM72 0v84l131 10l35 29v1128l-35 29l-131 12v82h518v-82l-131 -12l-35 -29v-1128l35 -29l131 -10v-84h-518z" />
<glyph unicode="&#xcd;" horiz-adv-x="663" d="M72 0v84l131 10l35 29v1128l-35 29l-131 12v82h518v-82l-131 -12l-35 -29v-1128l35 -29l131 -10v-84h-518zM254 1522l199 389h202l-299 -389h-102z" />
<glyph unicode="&#xce;" horiz-adv-x="663" d="M41 1522l225 389h131l226 -389h-111l-180 288l-178 -288h-113zM72 0v84l131 10l35 29v1128l-35 29l-131 12v82h518v-82l-131 -12l-35 -29v-1128l35 -29l131 -10v-84h-518z" />
<glyph unicode="&#xcf;" horiz-adv-x="663" d="M37 1714q0 45 30.5 75t73.5 30t73 -30t30 -75q0 -43 -30 -72.5t-73 -29.5t-73.5 29.5t-30.5 72.5zM72 0v84l131 10l35 29v1128l-35 29l-131 12v82h518v-82l-131 -12l-35 -29v-1128l35 -29l131 -10v-84h-518zM418 1714q0 45 30.5 75t73.5 30t73 -30t30 -75 q0 -43 -30 -72.5t-73 -29.5t-73.5 29.5t-30.5 72.5z" />
<glyph unicode="&#xd0;" horiz-adv-x="1419" d="M31 670v98h188v483l-35 29l-116 12v82h505q362 0 559 -181t197 -505q0 -367 -256 -561q-98 -74 -215 -100.5t-285 -26.5h-505v84l116 10l35 29v547h-188zM403 94h162q557 0 557 594q0 299 -138 445.5t-419 146.5h-162v-512h340v-98h-340v-576z" />
<glyph unicode="&#xd1;" horiz-adv-x="1460" d="M53 1292v82h385v-51l699 -1049v963l-37 37l-123 18v82h430v-82l-123 -18l-37 -37v-1237h-135l-780 1163v-1024l37 -39l123 -16v-84h-433v84l125 16l37 39v1112l-37 29zM418 1577v20q0 225 174 226q61 0 158.5 -53.5t123.5 -53.5q84 0 84 127v10h84q0 -6 1 -16t1 -14 q0 -98 -49 -157.5t-123 -59.5q-70 0 -171 53t-123 53q-33 0 -53.5 -29.5t-20.5 -80.5q0 -4 1 -12.5t1 -12.5h-88z" />
<glyph unicode="&#xd2;" horiz-adv-x="1497" d="M88 688q0 338 209 541q186 180 453 180q264 0 450 -180q211 -205 211 -541q0 -227 -104 -405q-86 -147 -232.5 -231.5t-324.5 -84.5q-268 0 -451 176q-211 205 -211 545zM301 688q0 -283 123 -447.5t326 -164.5q201 0 323.5 165t122.5 447.5t-123 446t-323 163.5 q-203 0 -326 -162.5t-123 -447.5zM451 1911h202l199 -389h-102z" />
<glyph unicode="&#xd3;" horiz-adv-x="1497" d="M88 688q0 338 209 541q186 180 453 180q264 0 450 -180q211 -205 211 -541q0 -227 -104 -405q-86 -147 -232.5 -231.5t-324.5 -84.5q-268 0 -451 176q-211 205 -211 545zM301 688q0 -283 123 -447.5t326 -164.5q201 0 323.5 165t122.5 447.5t-123 446t-323 163.5 q-203 0 -326 -162.5t-123 -447.5zM672 1522l198 389h203l-299 -389h-102z" />
<glyph unicode="&#xd4;" horiz-adv-x="1497" d="M88 688q0 338 209 541q186 180 453 180q264 0 450 -180q211 -205 211 -541q0 -227 -104 -405q-86 -147 -232.5 -231.5t-324.5 -84.5q-268 0 -451 176q-211 205 -211 545zM301 688q0 -283 123 -447.5t326 -164.5q201 0 323.5 165t122.5 447.5t-123 446t-323 163.5 q-203 0 -326 -162.5t-123 -447.5zM459 1522l225 389h131l225 -389h-110l-180 288l-179 -288h-112z" />
<glyph unicode="&#xd5;" horiz-adv-x="1497" d="M88 688q0 338 209 541q186 180 453 180q264 0 450 -180q211 -205 211 -541q0 -227 -104 -405q-86 -147 -232.5 -231.5t-324.5 -84.5q-268 0 -451 176q-211 205 -211 545zM301 688q0 -283 123 -447.5t326 -164.5q201 0 323.5 165t122.5 447.5t-123 446t-323 163.5 q-203 0 -326 -162.5t-123 -447.5zM436 1577v20q0 225 174 226q61 0 158.5 -53.5t124.5 -53.5q84 0 84 127v10h84q0 -6 1 -16t1 -14q0 -98 -49 -157.5t-123 -59.5q-70 0 -171.5 53t-123.5 53q-33 0 -53.5 -29.5t-20.5 -80.5q0 -4 1 -12.5t1 -12.5h-88z" />
<glyph unicode="&#xd6;" horiz-adv-x="1497" d="M88 688q0 338 209 541q186 180 453 180q264 0 450 -180q211 -205 211 -541q0 -227 -104 -405q-86 -147 -232.5 -231.5t-324.5 -84.5q-268 0 -451 176q-211 205 -211 545zM301 688q0 -283 123 -447.5t326 -164.5q201 0 323.5 165t122.5 447.5t-123 446t-323 163.5 q-203 0 -326 -162.5t-123 -447.5zM455 1714q0 45 30.5 75t73.5 30t73 -30t30 -75q0 -43 -30 -72.5t-73 -29.5t-73.5 29.5t-30.5 72.5zM836 1714q0 45 30.5 75t73.5 30t72.5 -30t29.5 -75q0 -43 -29.5 -72.5t-72.5 -29.5t-73.5 29.5t-30.5 72.5z" />
<glyph unicode="&#xd7;" horiz-adv-x="1705" d="M301 135l475 475l-475 477l80 82l477 -477l475 477l82 -82l-475 -477l475 -475l-82 -82l-475 475l-477 -475z" />
<glyph unicode="&#xd8;" horiz-adv-x="1497" d="M88 688q0 338 211 543q182 178 451 178q156 0 315 -74l119 197l84 -49l-125 -205q268 -215 268 -590q0 -338 -213 -545q-182 -176 -448 -176q-176 0 -340 90l-127 -215l-80 56l129 217q-244 208 -244 573zM293 688q0 -266 119 -438l583 969q-106 80 -245 79 q-205 0 -331 -163.5t-126 -446.5zM481 172q119 -94 269 -94q207 0 331.5 164t124.5 446q0 279 -137 463z" />
<glyph unicode="&#xd9;" horiz-adv-x="1421" d="M51 1292v82h502v-82l-127 -12l-37 -29v-741q0 -211 86 -309.5t281 -98.5q193 0 278.5 98.5t85.5 309.5v727l-39 37l-123 18v82h433v-82l-123 -18l-37 -37v-745q0 -129 -17.5 -212t-72.5 -149q-129 -156 -424 -156t-424 156q-55 68 -72.5 149.5t-17.5 211.5v759l-35 29z M412 1911h202l199 -389h-102z" />
<glyph unicode="&#xda;" horiz-adv-x="1421" d="M51 1292v82h502v-82l-127 -12l-37 -29v-741q0 -211 86 -309.5t281 -98.5q193 0 278.5 98.5t85.5 309.5v727l-39 37l-123 18v82h433v-82l-123 -18l-37 -37v-745q0 -129 -17.5 -212t-72.5 -149q-129 -156 -424 -156t-424 156q-55 68 -72.5 149.5t-17.5 211.5v759l-35 29z M633 1522l198 389h203l-299 -389h-102z" />
<glyph unicode="&#xdb;" horiz-adv-x="1421" d="M51 1292v82h502v-82l-127 -12l-37 -29v-741q0 -211 86 -309.5t281 -98.5q193 0 278.5 98.5t85.5 309.5v727l-39 37l-123 18v82h433v-82l-123 -18l-37 -37v-745q0 -129 -17.5 -212t-72.5 -149q-129 -156 -424 -156t-424 156q-55 68 -72.5 149.5t-17.5 211.5v759l-35 29z M420 1522l225 389h131l225 -389h-110l-180 288l-179 -288h-112z" />
<glyph unicode="&#xdc;" horiz-adv-x="1421" d="M51 1292v82h502v-82l-127 -12l-37 -29v-741q0 -211 86 -309.5t281 -98.5q193 0 278.5 98.5t85.5 309.5v727l-39 37l-123 18v82h433v-82l-123 -18l-37 -37v-745q0 -129 -17.5 -212t-72.5 -149q-129 -156 -424 -156t-424 156q-55 68 -72.5 149.5t-17.5 211.5v759l-35 29z M416 1714q0 45 30.5 75t73.5 30t73 -30t30 -75q0 -43 -30 -72.5t-73 -29.5t-73.5 29.5t-30.5 72.5zM797 1714q0 45 30.5 75t73.5 30t73 -30t30 -75q0 -43 -30 -72.5t-73 -29.5t-73.5 29.5t-30.5 72.5z" />
<glyph unicode="&#xdd;" horiz-adv-x="1200" d="M-27 1292v82h476v-82l-117 -12l-21 -23l314 -563l344 547l-19 29l-125 22v82h418v-82l-125 -26l-426 -682v-461l33 -29l139 -10v-84h-530v84l139 10l33 29v434l-408 715zM522 1522l199 389h203l-299 -389h-103z" />
<glyph unicode="&#xde;" horiz-adv-x="1142" d="M72 0v84l118 10l33 29v1128l-33 29l-118 12v82h497v-82l-127 -12l-32 -29v-135h112q301 0 435.5 -92t134.5 -317q0 -195 -142.5 -314t-388.5 -119q-45 0 -151 11v-162l32 -29l127 -10v-84h-497zM410 381q82 -8 135 -8q176 0 267 86t91 252q0 160 -94 236.5t-291 76.5 q-70 0 -108 -4v-639z" />
<glyph unicode="&#xdf;" horiz-adv-x="1247" d="M39 0v72l119 14l22 31v803q0 272 139.5 435t362.5 163q164 0 254 -88.5t90 -249.5q0 -106 -37 -226q-37 4 -49 4q-86 0 -135 -43t-49 -116q0 -25 4 -44.5t18.5 -37t24.5 -28.5t36.5 -27.5t42 -25.5t53.5 -29.5t58 -31.5q197 -109 197 -274q0 -133 -95.5 -224t-246.5 -91 q-76 0 -236 41v270h103l20 -178q55 -43 125 -43q80 0 128 49t48 123q0 41 -10 70.5t-42 56t-55.5 42t-82.5 48.5q-74 41 -109 63.5t-73.5 57.5t-54 73.5t-15.5 90.5q0 96 67.5 172.5t182.5 103.5q20 92 20 143q0 113 -59.5 183.5t-153.5 70.5q-156 0 -243 -166 q-51 -98 -52 -374v-764l17 -37l135 -10v-72h-469z" />
<glyph unicode="&#xe0;" horiz-adv-x="1038" d="M86 248q0 150 128 220.5t470 152.5v65q0 125 -40 177t-148 52q-76 0 -156 -32v-172h-141q-35 0 -49.5 13t-14.5 50q0 96 112.5 164t301.5 68q162 0 233.5 -70t71.5 -225v-594l37 -33l108 -10v-74h-288l-27 119q-195 -133 -336 -133q-121 0 -191.5 72.5t-70.5 189.5z M221 1507h203l199 -389h-103zM266 264q0 -76 44 -122t120 -46q94 0 254 92v361q-236 -66 -327 -122.5t-91 -162.5z" />
<glyph unicode="&#xe1;" horiz-adv-x="1038" d="M86 248q0 150 128 220.5t470 152.5v65q0 125 -40 177t-148 52q-76 0 -156 -32v-172h-141q-35 0 -49.5 13t-14.5 50q0 96 112.5 164t301.5 68q162 0 233.5 -70t71.5 -225v-594l37 -33l108 -10v-74h-288l-27 119q-195 -133 -336 -133q-121 0 -191.5 72.5t-70.5 189.5z M266 264q0 -76 44 -122t120 -46q94 0 254 92v361q-236 -66 -327 -122.5t-91 -162.5zM442 1118l199 389h203l-299 -389h-103z" />
<glyph unicode="&#xe2;" horiz-adv-x="1038" d="M86 248q0 150 128 220.5t470 152.5v65q0 125 -40 177t-148 52q-76 0 -156 -32v-172h-141q-35 0 -49.5 13t-14.5 50q0 96 112.5 164t301.5 68q162 0 233.5 -70t71.5 -225v-594l37 -33l108 -10v-74h-288l-27 119q-195 -133 -336 -133q-121 0 -191.5 72.5t-70.5 189.5z M229 1118l226 389h131l225 -389h-111l-180 289l-178 -289h-113zM266 264q0 -76 44 -122t120 -46q94 0 254 92v361q-236 -66 -327 -122.5t-91 -162.5z" />
<glyph unicode="&#xe3;" horiz-adv-x="1038" d="M86 248q0 150 128 220.5t470 152.5v65q0 125 -40 177t-148 52q-76 0 -156 -32v-172h-141q-35 0 -49.5 13t-14.5 50q0 96 112.5 164t301.5 68q162 0 233.5 -70t71.5 -225v-594l37 -33l108 -10v-74h-288l-27 119q-195 -133 -336 -133q-121 0 -191.5 72.5t-70.5 189.5z M207 1174v20q0 225 174 225q61 0 158.5 -53t124.5 -53q84 0 84 127v10h83q0 -6 1.5 -16.5t1.5 -14.5q0 -98 -49.5 -157.5t-122.5 -59.5q-70 0 -171.5 53.5t-123.5 53.5q-33 0 -53.5 -30t-20.5 -81q0 -4 1 -12t1 -12h-88zM266 264q0 -76 44 -122t120 -46q94 0 254 92v361 q-236 -66 -327 -122.5t-91 -162.5z" />
<glyph unicode="&#xe4;" horiz-adv-x="1038" d="M86 248q0 150 128 220.5t470 152.5v65q0 125 -40 177t-148 52q-76 0 -156 -32v-172h-141q-35 0 -49.5 13t-14.5 50q0 96 112.5 164t301.5 68q162 0 233.5 -70t71.5 -225v-594l37 -33l108 -10v-74h-288l-27 119q-195 -133 -336 -133q-121 0 -191.5 72.5t-70.5 189.5z M225 1311q0 45 31 74.5t74 29.5t72.5 -29.5t29.5 -74.5q0 -43 -29.5 -73t-72.5 -30t-74 30t-31 73zM266 264q0 -76 44 -122t120 -46q94 0 254 92v361q-236 -66 -327 -122.5t-91 -162.5zM606 1311q0 45 31 74.5t74 29.5t72.5 -29.5t29.5 -74.5q0 -43 -29.5 -73t-72.5 -30 t-74 30t-31 73z" />
<glyph unicode="&#xe5;" horiz-adv-x="1038" d="M86 248q0 150 128 220.5t470 152.5v65q0 125 -40 177t-148 52q-76 0 -156 -32v-172h-141q-35 0 -49.5 13t-14.5 50q0 96 112.5 164t301.5 68q162 0 234.5 -70t72.5 -225v-594l35 -33l108 -10v-74h-288l-27 119q-195 -133 -336 -133q-121 0 -191.5 72.5t-70.5 189.5z M266 264q0 -76 44 -122t120 -46q94 0 254 92v361q-236 -66 -327 -122.5t-91 -162.5zM272 1359.5q0 102.5 69 171t171 68.5t172 -69.5t70 -169.5q0 -102 -70 -172t-172 -70q-100 0 -170 69.5t-70 172zM365 1358q0 -61 43 -104.5t104 -43.5q63 0 107.5 43t44.5 105 q0 63 -44.5 106t-107.5 43q-61 0 -104 -43t-43 -106z" />
<glyph unicode="&#xe6;" horiz-adv-x="1484" d="M88 240q0 68 23.5 117t61.5 83.5t118 67.5t156.5 55.5t216.5 57.5v65q0 125 -39 177t-144 52q-74 0 -141 -32v-172h-143q-35 0 -48.5 13t-13.5 50q0 98 108.5 165t288.5 67q193 0 259 -123q111 123 270.5 123t247.5 -105.5t88 -300.5q0 -47 -2 -72h-572v-284 q131 -133 307 -133q145 0 267 106v-113q-156 -123 -332 -122q-213 0 -363 149q-195 -145 -362 -145q-115 0 -183.5 70.5t-68.5 183.5zM260 264q0 -76 43 -122t117 -46q92 0 244 92v361q-227 -66 -315.5 -122.5t-88.5 -162.5zM823 608h389q0 8 1 24.5t1 22.5q0 260 -184 260 q-96 0 -150.5 -78.5t-56.5 -228.5z" />
<glyph unicode="&#xe7;" horiz-adv-x="913" d="M76 494q0 229 135 370.5t350 141.5q145 0 226 -55.5t81 -145.5q0 -49 -31.5 -79t-82.5 -30q-45 0 -92 31v168q-47 29 -99 29q-133 0 -217 -113t-84 -303q0 -188 94.5 -295t253.5 -107q131 0 260 87v-107q-172 -100 -333 -100q-209 0 -335 140.5t-126 367.5zM358 -362 q61 -16 121 -17q66 0 101.5 23.5t35.5 64.5q0 76 -102 76q-14 0 -43 -4v219h76v-125q18 2 41 2q72 0 112.5 -39t40.5 -108q0 -86 -64.5 -136.5t-176.5 -50.5q-66 0 -142 21v74z" />
<glyph unicode="&#xe8;" horiz-adv-x="1005" d="M76 485q0 231 133 376t340 145q168 0 268.5 -107.5t100.5 -296.5q0 -41 -3 -63h-663v-23q0 -195 93 -306.5t251 -111.5q143 0 322 119v-113q-184 -123 -386 -122q-203 0 -329.5 139t-126.5 364zM227 1507h203l199 -389h-103zM262 625h473v32q0 125 -55 190.5t-158 65.5 q-100 0 -176 -80.5t-84 -207.5z" />
<glyph unicode="&#xe9;" horiz-adv-x="1005" d="M76 485q0 231 133 376t340 145q168 0 268.5 -107.5t100.5 -296.5q0 -41 -3 -63h-663v-23q0 -195 93 -306.5t251 -111.5q143 0 322 119v-113q-184 -123 -386 -122q-203 0 -329.5 139t-126.5 364zM262 625h473v32q0 125 -55 190.5t-158 65.5q-100 0 -176 -80.5t-84 -207.5z M449 1118l198 389h203l-299 -389h-102z" />
<glyph unicode="&#xea;" horiz-adv-x="1005" d="M76 485q0 231 133 376t340 145q168 0 268.5 -107.5t100.5 -296.5q0 -41 -3 -63h-663v-23q0 -195 93 -306.5t251 -111.5q143 0 322 119v-113q-184 -123 -386 -122q-203 0 -329.5 139t-126.5 364zM236 1118l225 389h131l225 -389h-110l-181 289l-178 -289h-112zM262 625 h473v32q0 125 -55 190.5t-158 65.5q-100 0 -176 -80.5t-84 -207.5z" />
<glyph unicode="&#xeb;" horiz-adv-x="1005" d="M76 485q0 231 133 376t340 145q168 0 268.5 -107.5t100.5 -296.5q0 -41 -3 -63h-663v-23q0 -195 93 -306.5t251 -111.5q143 0 322 119v-113q-184 -123 -386 -122q-203 0 -329.5 139t-126.5 364zM231 1311q0 45 31 74.5t74 29.5t72.5 -29.5t29.5 -74.5q0 -43 -29.5 -73 t-72.5 -30t-74 30t-31 73zM262 625h473v32q0 125 -55 190.5t-158 65.5q-100 0 -176 -80.5t-84 -207.5zM612 1311q0 45 31 74.5t74 29.5t72.5 -29.5t29.5 -74.5q0 -43 -29.5 -73t-72.5 -30t-74 30t-31 73z" />
<glyph unicode="&#xec;" horiz-adv-x="573" d="M-12 1507h202l199 -389h-102zM72 0v74l108 10l35 33v741h-143v64l235 73h80v-878l35 -33l110 -10v-74h-460z" />
<glyph unicode="&#xed;" horiz-adv-x="573" d="M72 0v74l108 10l35 33v741h-143v64l235 73h80v-878l35 -33l110 -10v-74h-460zM209 1118l199 389h202l-299 -389h-102z" />
<glyph unicode="&#xee;" horiz-adv-x="573" d="M-4 1118l225 389h131l226 -389h-111l-180 289l-178 -289h-113zM72 0v74l108 10l35 33v741h-143v64l235 73h80v-878l35 -33l110 -10v-74h-460z" />
<glyph unicode="&#xef;" horiz-adv-x="573" d="M-8 1311q0 45 30.5 74.5t73.5 29.5t73 -29.5t30 -74.5q0 -43 -30 -73t-73 -30t-73.5 30t-30.5 73zM72 0v74l108 10l35 33v741h-143v64l235 73h80v-878l35 -33l110 -10v-74h-460zM373 1311q0 45 30.5 74.5t73.5 29.5t73 -29.5t30 -74.5q0 -43 -30 -73t-73 -30t-73.5 30 t-30.5 73z" />
<glyph unicode="&#xf0;" horiz-adv-x="1081" d="M68 500q0 219 140 357t363 138q47 0 129 -14q-74 117 -163 227l-263 -157l-45 77l240 146l-74 84l-166 14v60l232 69l145 -149l225 135l46 -80l-211 -127q344 -397 344 -733q0 -252 -135.5 -409.5t-337.5 -157.5q-207 0 -338 146.5t-131 373.5zM258 495.5 q0 -198.5 81 -314t208 -115.5q129 0 209 118.5t80 329.5q0 233 -84 369q-100 27 -162 26q-156 0 -244 -107.5t-88 -306z" />
<glyph unicode="&#xf1;" horiz-adv-x="1163" d="M61 0v74l111 10l35 33v741h-146v64l238 73h78v-112q223 123 330 123q135 0 205.5 -79t70.5 -233v-577l35 -33l110 -10v-74h-448v74l98 10l35 33v542q0 113 -47 162t-160 49q-98 0 -229 -67v-686l35 -33l98 -10v-74h-449zM246 1174v20q0 225 174 225q61 0 158.5 -53 t123.5 -53q84 0 84 127v10h84q0 -6 1 -16.5t1 -14.5q0 -98 -49 -157.5t-123 -59.5q-70 0 -171 53.5t-123 53.5q-33 0 -53.5 -30t-20.5 -81q0 -4 1 -12t1 -12h-88z" />
<glyph unicode="&#xf2;" horiz-adv-x="1103" d="M76 494q0 227 133 369.5t342 142.5t343 -143.5t134 -369t-135 -368.5t-342 -143t-341 143.5t-134 368.5zM254 1507h203l198 -389h-102zM268 494q0 -195 79 -309.5t204 -114.5q127 0 206 113.5t79 310.5q0 195 -79 309.5t-206 114.5t-205 -113.5t-78 -310.5z" />
<glyph unicode="&#xf3;" horiz-adv-x="1103" d="M76 494q0 227 133 369.5t342 142.5t343 -143.5t134 -369t-135 -368.5t-342 -143t-341 143.5t-134 368.5zM268 494q0 -195 79 -309.5t204 -114.5q127 0 206 113.5t79 310.5q0 195 -79 309.5t-206 114.5t-205 -113.5t-78 -310.5zM475 1118l199 389h203l-299 -389h-103z" />
<glyph unicode="&#xf4;" horiz-adv-x="1103" d="M76 494q0 227 133 369.5t342 142.5t343 -143.5t134 -369t-135 -368.5t-342 -143t-341 143.5t-134 368.5zM262 1118l225 389h131l226 -389h-111l-180 289l-178 -289h-113zM268 494q0 -195 79 -309.5t204 -114.5q127 0 206 113.5t79 310.5q0 195 -79 309.5t-206 114.5 t-205 -113.5t-78 -310.5z" />
<glyph unicode="&#xf5;" horiz-adv-x="1103" d="M76 494q0 227 133 369.5t342 142.5t343 -143.5t134 -369t-135 -368.5t-342 -143t-341 143.5t-134 368.5zM240 1174v20q0 225 174 225q61 0 158.5 -53t123.5 -53q84 0 84 127v10h84q0 -6 1 -16.5t1 -14.5q0 -98 -49 -157.5t-123 -59.5q-70 0 -171 53.5t-124 53.5 q-33 0 -53 -30t-20 -81q0 -4 1 -12t1 -12h-88zM268 494q0 -195 79 -309.5t204 -114.5q127 0 206 113.5t79 310.5q0 195 -79 309.5t-206 114.5t-205 -113.5t-78 -310.5z" />
<glyph unicode="&#xf6;" horiz-adv-x="1103" d="M76 494q0 227 133 369.5t342 142.5t343 -143.5t134 -369t-135 -368.5t-342 -143t-341 143.5t-134 368.5zM258 1311q0 45 30.5 74.5t74 29.5t73 -29.5t29.5 -74.5q0 -43 -29.5 -73t-73 -30t-74 30t-30.5 73zM268 494q0 -195 79 -309.5t204 -114.5q127 0 206 113.5 t79 310.5q0 195 -79 309.5t-206 114.5t-205 -113.5t-78 -310.5zM639 1311q0 45 30.5 74.5t73.5 29.5t73 -29.5t30 -74.5q0 -43 -30 -73t-73 -30t-73.5 30t-30.5 73z" />
<glyph unicode="&#xf7;" horiz-adv-x="1705" d="M254 553v117h1198v-117h-1198zM739 250q0 49 34 82t81 33t81 -34t34 -81t-33 -81t-82 -34q-47 0 -81 34t-34 81zM739 971q0 47 34 80.5t81 33.5t81 -33.5t34 -80.5t-33 -81t-82 -34t-82 34t-33 81z" />
<glyph unicode="&#xf8;" horiz-adv-x="1103" d="M76 494q0 227 134 369.5t341 142.5q117 0 209 -45l106 186l70 -39l-107 -190q199 -150 199 -424q0 -225 -135 -368.5t-342 -143.5q-125 0 -232 57l-118 -203l-66 41l119 209q-178 148 -178 408zM264 494q0 -154 62 -281l379 651q-66 51 -154 51q-129 0 -208 -112 t-79 -309zM381 141q70 -72 170 -71q129 0 210 113.5t81 310.5q0 182 -82 309z" />
<glyph unicode="&#xf9;" horiz-adv-x="1165" d="M53 866v64l238 76h78v-678q0 -111 48 -164t150 -53q111 0 238 61v694h-146v64l238 76h78v-889l37 -33l96 -10v-74h-303v115q-188 -135 -332 -135q-133 0 -203.5 79.5t-70.5 233.5v573h-146zM285 1507h202l199 -389h-102z" />
<glyph unicode="&#xfa;" horiz-adv-x="1165" d="M53 866v64l238 76h78v-678q0 -111 48 -164t150 -53q111 0 238 61v694h-146v64l238 76h78v-889l37 -33l96 -10v-74h-303v115q-188 -135 -332 -135q-133 0 -203.5 79.5t-70.5 233.5v573h-146zM506 1118l199 389h202l-299 -389h-102z" />
<glyph unicode="&#xfb;" horiz-adv-x="1165" d="M53 866v64l238 76h78v-678q0 -111 48 -164t150 -53q111 0 238 61v694h-146v64l238 76h78v-889l37 -33l96 -10v-74h-303v115q-188 -135 -332 -135q-133 0 -203.5 79.5t-70.5 233.5v573h-146zM293 1118l225 389h131l225 -389h-110l-180 289l-178 -289h-113z" />
<glyph unicode="&#xfc;" horiz-adv-x="1165" d="M53 866v64l238 76h78v-678q0 -111 48 -164t150 -53q111 0 238 61v694h-146v64l238 76h78v-889l37 -33l96 -10v-74h-303v115q-188 -135 -332 -135q-133 0 -203.5 79.5t-70.5 233.5v573h-146zM289 1311q0 45 30.5 74.5t73.5 29.5t73 -29.5t30 -74.5q0 -43 -30 -73t-73 -30 t-73.5 30t-30.5 73zM670 1311q0 45 30.5 74.5t73.5 29.5t73 -29.5t30 -74.5q0 -43 -30 -73t-73 -30t-73.5 30t-30.5 73z" />
<glyph unicode="&#xfd;" horiz-adv-x="1013" d="M-2 909v76h444v-76l-108 -8l-25 -33l246 -637l256 637l-16 33l-111 8v76h365v-76l-119 -16l-410 -995q-74 -176 -151.5 -260t-175.5 -84q-63 0 -102.5 31.5t-39.5 82.5q0 61 53 111l197 -78q92 100 166 307l-344 889zM430 1118l199 389h202l-299 -389h-102z" />
<glyph unicode="&#xfe;" horiz-adv-x="1128" d="M41 1370v64l252 73h78v-624q162 123 301 123q170 0 282.5 -133.5t112.5 -346.5q0 -242 -138 -387t-366 -145q-80 0 -192 18v-342l37 -32l129 -11v-73h-480v73l109 11l35 32v1700h-160zM371 119q98 -33 176 -33q152 0 246 112.5t94 301.5q0 174 -82 275.5t-217 101.5 q-96 0 -217 -70v-688z" />
<glyph unicode="&#xff;" horiz-adv-x="1013" d="M-2 909v76h444v-76l-108 -8l-25 -33l246 -637l256 637l-16 33l-111 8v76h365v-76l-119 -16l-410 -995q-74 -176 -151.5 -260t-175.5 -84q-63 0 -102.5 31.5t-39.5 82.5q0 61 53 111l197 -78q92 100 166 307l-344 889zM213 1311q0 45 30.5 74.5t73.5 29.5t73 -29.5 t30 -74.5q0 -43 -30 -73t-73 -30t-73.5 30t-30.5 73zM594 1311q0 45 30.5 74.5t73.5 29.5t73 -29.5t30 -74.5q0 -43 -30 -73t-73 -30t-73.5 30t-30.5 73z" />
<glyph unicode="&#x152;" horiz-adv-x="2033" d="M88 688q0 328 197 531q166 172 411 172q313 0 437 -267v250h770v-299h-115l-29 174l-28 31h-426v-518h286l31 29l20 149h97v-451h-97l-20 148l-31 31h-286v-574h499l31 33l33 207h108v-334h-843v252q-147 -268 -437 -268q-246 0 -413 172q-195 198 -195 532zM301 692 q0 -281 114.5 -441.5t301 -160.5t302.5 160t116 436.5t-116 437t-302.5 160.5t-301 -158t-114.5 -434z" />
<glyph unicode="&#x153;" horiz-adv-x="1673" d="M76 493.5q0 227.5 129 370t327 142.5q244 0 369 -201q119 201 332 201q168 0 262 -105.5t94 -300.5q0 -41 -2 -61h-610v-7q0 -201 90 -312t248 -111q123 0 272 108v-113q-172 -125 -336 -124q-225 0 -362 204q-152 -205 -357 -204q-199 0 -327.5 143t-128.5 370.5z M268 493.5q0 -196.5 75 -310t192 -113.5q119 0 192.5 113.5t73.5 310t-74 309t-192.5 112.5t-192.5 -112.5t-74 -309zM987 625h418v28q0 125 -48 192.5t-138 67.5q-88 0 -152 -75.5t-80 -212.5z" />
<glyph unicode="&#x178;" horiz-adv-x="1200" d="M-27 1292v82h476v-82l-117 -12l-21 -23l314 -563l344 547l-19 29l-125 22v82h418v-82l-125 -26l-426 -682v-461l33 -29l139 -10v-84h-530v84l139 10l33 29v434l-408 715zM305 1714q0 45 31 75t74 30t72.5 -30t29.5 -75q0 -43 -29.5 -72.5t-72.5 -29.5t-74 29.5t-31 72.5z M686 1714q0 45 31 75t74 30t72.5 -30t29.5 -75q0 -43 -29.5 -72.5t-72.5 -29.5t-74 29.5t-31 72.5z" />
<glyph unicode="&#x2c6;" horiz-adv-x="1024" d="M221 1118l225 389h132l225 -389h-111l-180 289l-178 -289h-113z" />
<glyph unicode="&#x2dc;" horiz-adv-x="1024" d="M199 1174v20q0 225 174 225q61 0 158.5 -53t123.5 -53q84 0 84 127v10h84q0 -6 1 -16.5t1 -14.5q0 -98 -49 -157.5t-123 -59.5q-70 0 -171 53.5t-124 53.5q-33 0 -53 -30t-20 -81q0 -4 1 -12t1 -12h-88z" />
<glyph unicode="&#x2000;" horiz-adv-x="986" />
<glyph unicode="&#x2001;" horiz-adv-x="1972" />
<glyph unicode="&#x2002;" horiz-adv-x="986" />
<glyph unicode="&#x2003;" horiz-adv-x="1972" />
<glyph unicode="&#x2004;" horiz-adv-x="657" />
<glyph unicode="&#x2005;" horiz-adv-x="493" />
<glyph unicode="&#x2006;" horiz-adv-x="328" />
<glyph unicode="&#x2007;" horiz-adv-x="328" />
<glyph unicode="&#x2008;" horiz-adv-x="246" />
<glyph unicode="&#x2009;" horiz-adv-x="394" />
<glyph unicode="&#x200a;" horiz-adv-x="109" />
<glyph unicode="&#x2010;" horiz-adv-x="653" d="M96 424v137h461v-137h-461z" />
<glyph unicode="&#x2011;" horiz-adv-x="653" d="M96 424v137h461v-137h-461z" />
<glyph unicode="&#x2012;" horiz-adv-x="653" d="M96 424v137h461v-137h-461z" />
<glyph unicode="&#x2013;" horiz-adv-x="1024" d="M0 430v125h1024v-125h-1024z" />
<glyph unicode="&#x2014;" horiz-adv-x="2048" d="M0 430v125h2048v-125h-2048z" />
<glyph unicode="&#x2018;" horiz-adv-x="411" d="M72 1094q0 180 196 366h88q-164 -182 -163 -315q0 -31 4 -47h131q27 -39 26 -72q0 -53 -33.5 -87t-89.5 -34q-72 0 -115.5 51.5t-43.5 137.5z" />
<glyph unicode="&#x2019;" horiz-adv-x="411" d="M63 905q164 180 164 316q0 31 -4 47h-133q-27 39 -27 75q0 49 34 83t89 34q72 0 117 -51t45 -137q0 -178 -196 -367h-89z" />
<glyph unicode="&#x201a;" horiz-adv-x="411" d="M63 -336q164 186 164 313q0 31 -4 48h-131q-27 39 -26 75q0 51 34.5 85t87.5 34q72 0 116 -51t44 -137q0 -180 -196 -367h-89z" />
<glyph unicode="&#x201c;" horiz-adv-x="825" d="M72 1094q0 180 196 366h88q-164 -182 -163 -315q0 -31 4 -47h131q27 -39 26 -72q0 -53 -33.5 -87t-89.5 -34q-72 0 -115.5 51.5t-43.5 137.5zM483 1094q0 180 197 366h88q-164 -182 -164 -315q0 -31 4 -47h133q27 -39 27 -72q0 -53 -34 -87t-89 -34q-72 0 -117 51.5 t-45 137.5z" />
<glyph unicode="&#x201d;" horiz-adv-x="825" d="M63 905q164 180 164 316q0 31 -4 47h-133q-27 39 -27 75q0 49 34 83t89 34q72 0 117 -51t45 -137q0 -178 -196 -367h-89zM475 905q164 180 164 316q0 31 -4 47h-131q-27 39 -27 75q0 49 34 83t87 34q72 0 117 -51t45 -137q0 -178 -197 -367h-88z" />
<glyph unicode="&#x201e;" horiz-adv-x="825" d="M63 -336q164 186 164 313q0 31 -4 48h-131q-27 39 -26 75q0 51 34.5 85t87.5 34q72 0 116 -51t44 -137q0 -180 -196 -367h-89zM477 100q0 51 34 85t89 34q72 0 116 -51t44 -137q0 -180 -195 -367h-88q164 186 164 313q0 31 -4 48h-133q-27 38 -27 75z" />
<glyph unicode="&#x2022;" horiz-adv-x="1208" d="M307 762q0 123 87 209t210 86q121 0 208 -86t87 -209q0 -121 -87 -209t-210 -88t-209 87t-86 210z" />
<glyph unicode="&#x2026;" horiz-adv-x="2048" d="M211 110.5q0 55.5 39 93.5t92 38t91 -38t38 -93q0 -53 -38 -91t-91 -38q-55 0 -93 36.5t-38 92zM893 110.5q0 55.5 39 93.5t92 38t91 -38t38 -93q0 -53 -38 -91t-91 -38q-55 0 -93 36.5t-38 92zM1577 110.5q0 55.5 39 93.5t92 38t91 -38t38 -93q0 -53 -38 -91t-91 -38 q-55 0 -93 36.5t-38 92z" />
<glyph unicode="&#x202f;" horiz-adv-x="394" />
<glyph unicode="&#x2039;" horiz-adv-x="501" d="M80 410v163l336 273v-135l-240 -219l240 -222v-133z" />
<glyph unicode="&#x203a;" horiz-adv-x="501" d="M94 137v133l240 222l-240 219v135l334 -273v-163z" />
<glyph unicode="&#x205f;" horiz-adv-x="493" />
<glyph unicode="&#x2122;" horiz-adv-x="1683" d="M242 1214v142h469v-142h-54l-12 82l-14 13h-107v-439l78 -8v-45h-250v43l80 8v441h-106l-17 -13l-12 -82h-55zM772 1309v47h209v-25l139 -368l142 366v27h204v-47l-65 -11v-428l65 -10v-43h-219v43l62 10v435l-189 -488h-45l-180 488v-435l63 -8v-45h-184v45l64 8v428z " />
<glyph unicode="&#x25fc;" horiz-adv-x="983" d="M0 0v983h983v-983h-983z" />
<glyph unicode="&#xfb01;" horiz-adv-x="1175" d="M59 0v74l109 10l37 33v745h-131v64l131 32v33q0 240 115.5 386.5t283.5 146.5q61 0 99 -30t38 -79q0 -74 -88 -110l-157 114q-119 -68 -119 -311v-150h422l119 56h67v-897l33 -33l96 -10v-74h-446v74l110 10l37 33v745h-440v-745l35 -33l104 -10v-74h-455zM817 1321 q0 45 31 74.5t76 29.5t75.5 -30.5t30.5 -73.5q0 -45 -30.5 -76t-75.5 -31t-76 31t-31 76z" />
<glyph unicode="&#xfb02;" horiz-adv-x="1185" d="M59 0v74l109 10l37 33v745h-131v64l131 32v33q0 240 115.5 386.5t283.5 146.5q123 0 137 -101l209 99h45v-1405l35 -33l117 -10v-74h-465v74l109 10l34 33v1249h-92l-71 -53l-152 114q-133 -61 -133 -319v-150h285v-96h-287v-745l35 -33l104 -10v-74h-455z" />
</font>
</defs>
</svg>
