<?xml version="1.0" standalone="no"?>
<!DOCTYPE svg PUBLIC "-//W3C//DTD SVG 1.1//EN" "http://www.w3.org/Graphics/SVG/1.1/DTD/svg11.dtd" >
<svg xmlns="http://www.w3.org/2000/svg" xmlns:xlink="http://www.w3.org/1999/xlink" version="1.1">
<metadata></metadata>
<defs>
<font id="_.regular" horiz-adv-x="1200" >
<font-face units-per-em="2048" ascent="1561" descent="-487" />
<missing-glyph horiz-adv-x="600" />
<glyph horiz-adv-x="0" />
<glyph unicode="&#xd;" horiz-adv-x="681" />
<glyph unicode=" "  horiz-adv-x="600" />
<glyph unicode="&#x09;" horiz-adv-x="600" />
<glyph unicode="&#xa0;" horiz-adv-x="600" />
<glyph unicode="!" horiz-adv-x="696" d="M88 123q0 70 52.5 122t119.5 52q59 0 98 -40t39 -97q0 -70 -52 -122t-122 -52q-55 0 -95 40t-40 97zM233 406l43 727q8 139 53.5 203.5t143.5 64.5q61 0 95 -32t34 -89q0 -41 -31 -143l-231 -731h-107z" />
<glyph unicode="&#x22;" horiz-adv-x="694" d="M84 1354q0 109 94 108q96 0 96 -108q0 -27 -2 -39l-73 -459h-39l-74 459q-2 14 -2 39zM420 1354q0 51 25.5 79.5t70.5 28.5t70.5 -27.5t25.5 -78.5q0 -12 -4 -41l-73 -459h-39l-74 459q-2 14 -2 39z" />
<glyph unicode="#" horiz-adv-x="1538" d="M117 453v125h327l91 276h-316v125h359l163 475l129 -37l-155 -438h282l158 473l131 -35l-156 -438h281v-125h-321l-95 -276h330v-125h-373l-166 -500l-129 33l156 467h-274l-168 -500l-129 33l161 467h-286zM582 578h272l96 276h-276z" />
<glyph unicode="$" d="M51 82l68 340h139l-8 -244l24 -18q88 -37 168 -43l90 477q-319 119 -319 348q0 174 131 295t346 135l31 152h106l-28 -150q156 -8 313 -63l-68 -330h-131l9 231l-25 21q-53 20 -123 27l-86 -457q342 -115 342 -346q0 -186 -136 -310t-370 -145l-39 -215h-108l41 215 q-207 12 -367 80zM446 1026q0 -129 142 -186l82 420q-102 -12 -163 -77t-61 -157zM551 117q111 14 176.5 81.5t65.5 159.5q0 143 -156 201z" />
<glyph unicode="%" horiz-adv-x="1839" d="M113 825q0 254 121.5 414t308.5 160q129 0 202.5 -81t73.5 -220q0 -244 -124 -401.5t-306 -157.5q-127 0 -201.5 78.5t-74.5 207.5zM291 0l1104 1374h153l-1102 -1374h-155zM303 801q0 -170 100 -170q82 0 150 146.5t68 361.5q0 168 -99 168q-88 0 -147 -142 q-72 -171 -72 -364zM1024 264q0 254 123 412t309 158q129 0 203 -80t74 -219q0 -244 -124 -402t-309 -158q-127 0 -201.5 79t-74.5 210zM1217 233q0 -166 96 -165q88 0 149 141q72 170 72 364q0 170 -100 170q-86 0 -146 -141q-71 -170 -71 -369z" />
<glyph unicode="&#x26;" horiz-adv-x="1495" d="M39 324q0 274 350 409q-129 141 -129 281q0 160 133 273.5t332 113.5q164 0 260 -81t96 -210q0 -127 -101 -226.5t-288 -142.5l273 -354q80 74 159 229l-18 35l-96 15v98h417v-100l-143 -19q-106 -186 -252 -342q74 -106 146.5 -154.5t169.5 -48.5q4 0 14 1t16 1v-98 l-121 -12q-98 -6 -102 -6q-180 0 -301 166q-219 -178 -444 -179q-162 0 -266.5 100.5t-104.5 250.5zM299 399q0 -113 72.5 -185.5t183.5 -72.5q125 0 238 88l-338 430q-156 -100 -156 -260zM500 1065q0 -104 125 -258q223 109 223 303q0 82 -41 130t-111 48 q-84 0 -140 -61.5t-56 -161.5z" />
<glyph unicode="'" horiz-adv-x="358" d="M84 1354q0 109 94 108q96 0 96 -108q0 -27 -2 -39l-73 -459h-39l-74 459q-2 14 -2 39z" />
<glyph unicode="(" horiz-adv-x="860" d="M135 301q0 272 111 586q82 238 260 403q184 174 432 180l-18 -104q-166 -16 -279 -164q-115 -150 -172 -354q-102 -360 -102 -617q0 -195 67.5 -301t192.5 -116l-21 -105q-221 4 -346 160t-125 432z" />
<glyph unicode=")" horiz-adv-x="860" d="M-125 -291l19 105q162 12 278 163q121 156 178 373q96 360 96 604q0 188 -67.5 295t-192.5 117l21 104q221 -4 346 -157.5t125 -425.5q0 -256 -105 -574q-84 -254 -266 -424q-186 -174 -432 -180z" />
<glyph unicode="*" horiz-adv-x="1024" d="M199 1169l157 56l189 -156l-17 -31l-266 2zM268 692l25 158l244 160l22 -19l-131 -256zM537 1346l118 124l76 -124l-129 -256h-33zM573 991l31 19l187 -160l-35 -158l-144 45zM621 1069l245 156l138 -54l-113 -131l-268 -4z" />
<glyph unicode="+" horiz-adv-x="1705" d="M254 528v166h514v527h170v-527h514v-166h-514v-528h-170v528h-514z" />
<glyph unicode="," horiz-adv-x="598" d="M-117 -358l17 94q238 43 272 278h-125q-23 31 -22 76q0 76 48 125t119.5 49t111.5 -42t40 -116q0 -166 -131 -302.5t-330 -161.5z" />
<glyph unicode="-" horiz-adv-x="655" d="M20 393l37 201h518l-34 -201h-521z" />
<glyph unicode="." horiz-adv-x="602" d="M45 145.5q0 65.5 46 112.5t110 47q66 0 110.5 -46t44.5 -113.5t-45 -112.5t-110 -45q-63 0 -109.5 46t-46.5 111.5z" />
<glyph unicode="/" horiz-adv-x="985" d="M-244 -190l1151 1564h168l-1149 -1564h-170z" />
<glyph unicode="0" d="M59 440q0 385 181 668q88 139 215 215t266 76q195 0 305.5 -130t110.5 -360q0 -365 -172 -641q-184 -293 -498 -293q-180 0 -294 129t-114 336zM322 362q0 -266 178 -266q152 0 252 248q125 311 125 676q0 260 -168 260q-156 0 -260 -254q-127 -316 -127 -664z" />
<glyph unicode="1" d="M162 0v106l217 13l33 35l192 1022l-22 10l-291 -37v100l481 146h123l-236 -1248l21 -32l190 -13v-102h-708z" />
<glyph unicode="2" d="M-6 0l12 154q217 150 354.5 257t249 218.5t161.5 213t50 208.5q0 100 -57 157.5t-158 57.5q-53 0 -119 -19l-51 -278q-57 -31 -119 -31q-59 0 -91.5 34t-32.5 91q0 88 83 172q162 162 410 162q182 0 291.5 -95.5t109.5 -250.5q0 -197 -200.5 -401t-616.5 -443h572l67 184 h135l-71 -391h-979z" />
<glyph unicode="3" d="M25 221q0 63 42 107.5t103 44.5q37 0 94 -23l25 -221q72 -33 117 -33q154 0 249 92.5t95 239.5q0 102 -61.5 157.5t-178.5 55.5q-55 0 -129 -12l25 149q18 -2 53 -2q168 0 266 82t98 215q0 90 -59 145.5t-158 55.5q-53 0 -119 -27l-41 -241q-76 -31 -110 -31 q-55 0 -90 34.5t-35 88.5q0 115 143.5 208t358.5 93q180 0 285.5 -85t105.5 -214t-107.5 -229.5t-302.5 -139.5q340 -20 340 -291q0 -184 -186 -325q-182 -137 -434 -138q-172 0 -280.5 73t-108.5 171z" />
<glyph unicode="4" d="M-4 369l33 161l831 854h201l-162 -854h227l-28 -161h-228l-84 -435h-233l80 435h-637zM219 530h447l114 582z" />
<glyph unicode="5" d="M41 213q0 61 41 101t106 40q41 0 82 -18l31 -221q43 -18 100 -19q160 0 261.5 101.5t101.5 248.5q0 119 -84 187.5t-236 68.5q-84 0 -239 -18l135 690h788l-38 -207h-631l-72 -348q145 41 248 41q184 0 290.5 -92t106.5 -244q0 -227 -181 -385.5t-454 -158.5 q-160 0 -258 68.5t-98 164.5z" />
<glyph unicode="6" d="M63 463q0 223 100.5 427t280.5 349q240 195 596 234l17 -130q-244 -23 -418 -158.5t-242 -355.5q164 104 326 105q166 0 265 -103.5t99 -281.5q0 -233 -171 -403.5t-414 -170.5q-203 0 -321 129.5t-118 358.5zM330 436q0 -160 57 -246t158 -86q113 0 195.5 111t82.5 272 q0 285 -250 285q-102 0 -204 -57q-39 -134 -39 -279z" />
<glyph unicode="7" d="M152 -70l837 1223h-586l-69 -203h-135l80 424h974l-20 -125l-854 -1263l-4 -56h-223z" />
<glyph unicode="8" d="M49 317q0 121 88 220.5t250 154.5q-178 96 -178 281q0 180 147.5 306t370.5 126q186 0 291.5 -84t105.5 -223q0 -250 -307 -365q133 -66 195.5 -139.5t62.5 -171.5q0 -193 -159.5 -326t-409.5 -133q-217 0 -337 96t-120 258zM295 340q0 -115 68.5 -183.5t183.5 -68.5 q117 0 191.5 72.5t74.5 185.5q0 92 -73.5 148.5t-268.5 146.5q-176 -119 -176 -301zM463 1044q0 -82 60.5 -141t201.5 -127q168 109 168 301q0 94 -52.5 151.5t-138.5 57.5q-104 0 -171.5 -68t-67.5 -174z" />
<glyph unicode="9" d="M98 834q0 129 64.5 250.5t181.5 203.5q160 113 348 113q215 0 332 -118t117 -333q0 -350 -263.5 -643t-730.5 -426l-32 115q475 143 678 557q-199 -96 -316 -96q-170 0 -274.5 103.5t-104.5 273.5zM369 889q0 -129 64.5 -203t176.5 -74q111 0 226 70q39 154 38 274 q0 154 -59 238t-158 84q-111 0 -199.5 -113.5t-88.5 -275.5z" />
<glyph unicode=":" horiz-adv-x="708" d="M102 145.5q0 65.5 45.5 112.5t108.5 47q66 0 112 -46t46 -114q0 -66 -46 -111.5t-112 -45.5q-63 0 -108.5 46t-45.5 111.5zM225 837.5q0 65.5 45 111.5t109 46q66 0 112 -46t46 -111.5t-45.5 -111.5t-110.5 -46q-63 0 -109.5 46t-46.5 111.5z" />
<glyph unicode=";" horiz-adv-x="708" d="M-49 -358l16 94q240 43 271 278h-123q-25 35 -25 78q0 74 48 123t120 49t113 -43t41 -115q0 -166 -131 -302.5t-330 -161.5zM225 837.5q0 65.5 45 111.5t109 46q66 0 112 -46t46 -111.5t-45.5 -111.5t-110.5 -46q-63 0 -109.5 46t-46.5 111.5z" />
<glyph unicode="&#x3c;" horiz-adv-x="1705" d="M264 530v160l1178 486v-185l-934 -381l934 -381v-182z" />
<glyph unicode="=" horiz-adv-x="1705" d="M254 322v165h1198v-165h-1198zM254 733v168h1198v-168h-1198z" />
<glyph unicode="&#x3e;" horiz-adv-x="1705" d="M264 47v182l934 381l-934 381v185l1178 -486v-160z" />
<glyph unicode="?" horiz-adv-x="1007" d="M152 121q0 70 52 123t120 53q57 0 96 -39t39 -98q0 -70 -52.5 -122t-123.5 -52q-53 0 -92 40t-39 95zM162 1147q0 100 114.5 176t294.5 76q184 0 288 -84t104 -232q0 -166 -131.5 -295t-385.5 -206l-34 -187h-133l51 277q178 57 273 165.5t95 245.5q0 94 -57 145.5 t-166 51.5h-6l-135 -231q-14 -2 -41 -2q-131 0 -131 100z" />
<glyph unicode="@" horiz-adv-x="1916" d="M156 504q0 408 297 680q258 236 641 235q311 0 500.5 -182t189.5 -473q0 -227 -115 -404q-76 -117 -183.5 -183t-211.5 -66q-164 0 -164 165q-160 -160 -297 -159q-115 0 -185.5 89t-70.5 238q0 197 113 351q74 100 180 156.5t217 56.5q96 0 201 -56l37 47h139 q-14 -37 -55 -213l-76 -348q-18 -88 -19 -127q0 -29 21.5 -49t52.5 -20q90 0 174 104q137 174 137 422q0 242 -160.5 395.5t-424.5 153.5q-317 0 -533 -199q-250 -231 -250 -588q0 -330 199 -530.5t522 -200.5q274 0 533 148l34 -80q-324 -180 -622 -180q-350 0 -592 231 q-229 219 -229 586zM770 477q0 -217 152 -217q98 0 194 129l76 408l-76 108q-29 4 -41 4q-127 0 -216 -123t-89 -309z" />
<glyph unicode="A" horiz-adv-x="1298" d="M-139 0v98l114 17l719 1271h211l209 -1245l21 -26l118 -15v-100h-538v100l125 13l22 30l-57 340h-457l-188 -344l20 -30l121 -9v-100h-440zM410 596h374l-84 532z" />
<glyph unicode="B" horiz-adv-x="1286" d="M-47 0v100l131 11l31 30l207 1098l-23 29l-131 10v96h614q403 0 404 -260q0 -137 -90 -236.5t-265 -144.5q317 -16 318 -282q0 -215 -150.5 -333t-435.5 -118h-610zM369 115q57 -6 112 -6q385 0 385 335q0 213 -286 213q-51 0 -109 -6zM489 768q53 -4 74 -4q164 0 254 84 t90 233q0 188 -248 189q-20 0 -77 -4z" />
<glyph unicode="C" horiz-adv-x="1280" d="M76 557q0 299 192 543q111 139 280 220t353 81q188 0 402 -70l-64 -346h-135l-2 223l-21 37q-80 29 -135 29q-225 0 -371 -150q-215 -219 -215 -585q0 -209 106.5 -326t291.5 -117q57 0 116 15l39 36l95 254h137l-66 -354q-219 -74 -420 -74q-264 0 -423.5 160 t-159.5 424z" />
<glyph unicode="D" horiz-adv-x="1437" d="M-51 0v100l135 11l29 30l206 1094l-20 31l-131 10v98h553q311 0 471 -134t160 -388q0 -373 -254 -631q-221 -221 -639 -221h-510zM371 117h84q299 0 446 200q74 102 118 246t44 293q0 193 -96.5 298.5t-272.5 105.5h-110z" />
<glyph unicode="E" horiz-adv-x="1189" d="M-45 0v98l133 13l29 30l207 1090l-19 33l-131 10v100h1014l-62 -319h-131l-2 174l-22 31h-385l-92 -492h249l31 29l51 151h117l-90 -477h-111l4 154l-26 28h-248l-102 -534h462l29 28l78 220h135l-67 -367h-1051z" />
<glyph unicode="F" horiz-adv-x="1103" d="M-47 0v98l135 15l27 28l209 1098l-21 27l-133 10v98h995l-67 -344h-129l-4 201l-21 26h-360l-99 -512h244l37 25l53 154h117l-92 -482h-113l4 160l-28 25h-242l-92 -484l24 -30l138 -11l-9 -102h-573z" />
<glyph unicode="G" horiz-adv-x="1419" d="M78 553q0 207 88 385t248 295q236 170 532 170q217 0 400 -68l-64 -350h-147l4 227l-25 39q-76 25 -139 25q-221 0 -375 -137q-113 -102 -175.5 -256t-62.5 -336q0 -205 110 -324t298 -119q37 0 109 7l77 424l-22 28l-139 12v101h579v-98l-129 -13l-31 -28l-92 -476 q-246 -86 -454 -86q-270 0 -430 157t-160 421z" />
<glyph unicode="H" horiz-adv-x="1529" d="M-51 0v100l131 11l33 32l206 1092l-20 31l-127 8v100h565v-98l-133 -10l-26 -27l-86 -459h573l86 455l-27 31l-123 12v96h570v-98l-135 -10l-27 -27l-207 -1096l19 -30l131 -15v-98h-568v100l129 13l33 30l94 514h-573l-96 -514l22 -34l131 -9v-100h-575z" />
<glyph unicode="I" horiz-adv-x="722" d="M-41 0v100l135 11l31 30l207 1098l-21 29l-133 8v98h578v-98l-135 -8l-33 -29l-207 -1102l25 -28l133 -9v-100h-580z" />
<glyph unicode="J" horiz-adv-x="970" d="M-92 29l69 364h146l2 -278l27 -25h4q154 0 212 100.5t105 362.5l123 684l-21 31l-137 8v98h578v-98l-137 -12l-29 -33l-117 -682q-49 -293 -176 -434.5t-348 -141.5q-172 1 -301 56z" />
<glyph unicode="K" horiz-adv-x="1337" d="M-53 0v100l131 11l31 30l206 1098l-20 29l-129 10v96h571v-96l-135 -10l-27 -29l-102 -537h62l514 529l-13 33l-127 10v100h512v-100l-164 -17l-479 -485l262 -524q43 -86 87 -119t135 -33q8 0 22 1t21 1v-96q-233 -16 -244 -16q-119 0 -174.5 48t-118.5 177l-186 389 h-129l-84 -459l22 -32l127 -9v-100h-571z" />
<glyph unicode="L" horiz-adv-x="1083" d="M-51 0v98l127 13l33 26l206 1102l-20 29l-129 10v96h571v-98l-129 -10l-35 -27l-208 -1120h370l37 28l80 256h147l-77 -403h-973z" />
<glyph unicode="M" horiz-adv-x="1830" d="M-49 0v100l131 15l31 30l215 1088l-19 33l-135 10v98h528v-61l152 -948l500 954v55h514v-100l-131 -10l-31 -29l-197 -1094l21 -30l127 -13v-98h-553v102l135 11l29 28l196 1102l-649 -1243h-147l-195 1233l-213 -1094l25 -28l123 -11v-100h-457z" />
<glyph unicode="N" horiz-adv-x="1458" d="M-53 0v102l133 11l29 30l208 1096l-22 29l-131 10v96h452v-49l420 -993l174 907l-24 27l-133 14v94h469v-96l-131 -10l-33 -27l-232 -1241h-211l-471 1110l-184 -963l19 -34l135 -13v-100h-467z" />
<glyph unicode="O" horiz-adv-x="1492" d="M78 543q0 322 188 569q102 137 255 213t323 76q256 0 412.5 -155.5t156.5 -409.5q0 -324 -188 -570q-109 -141 -259.5 -217t-324.5 -76q-254 0 -408.5 157t-154.5 413zM360 524q0 -197 84 -311.5t220 -114.5q190 0 329 232q131 219 131 522q0 203 -79.5 314.5 t-219.5 111.5q-188 0 -325 -229q-140 -230 -140 -525z" />
<glyph unicode="P" horiz-adv-x="1189" d="M-49 0v100l131 11l31 28l206 1094l-20 35l-127 10v96h528q205 0 306 -43q86 -37 137 -116.5t51 -182.5q0 -231 -168 -377.5t-453 -146.5q-80 0 -133 4l-69 -369l18 -34l135 -9v-100h-573zM461 627q23 -2 63 -2q184 0 286.5 104.5t102.5 288.5q0 244 -280 244 q-33 0 -51 -2z" />
<glyph unicode="Q" horiz-adv-x="1492" d="M74 545q0 336 219 596q104 125 248.5 192.5t306.5 67.5q252 0 407.5 -157t155.5 -406q0 -256 -115.5 -459t-328.5 -320q66 -135 123 -190t149 -55q76 0 203 43v-95q-227 -98 -359 -98q-125 0 -216 76t-165 240q-25 -2 -71 -3q-193 0 -314 89q-243 176 -243 479zM365 555 q0 -205 88 -323.5t229 -118.5q137 0 258 143q80 94 129 245.5t49 321.5q0 205 -85 323t-220 118q-139 0 -262 -146q-88 -104 -141 -284q-45 -154 -45 -279z" />
<glyph unicode="R" horiz-adv-x="1320" d="M-45 0v98l129 13l31 26l209 1098l-23 31l-133 10v98h594q223 0 330.5 -71.5t107.5 -223.5q0 -160 -113.5 -269.5t-318.5 -141.5q123 -25 175 -105t101 -256q35 -127 75 -169t149 -42h26v-94q-102 -14 -188 -14q-141 0 -214 66.5t-116 226.5q-6 27 -17 77t-18.5 76.5 t-25 59t-41.5 55.5q-68 55 -185 55h-26l-88 -465l18 -28l137 -11v-100h-575zM485 721q20 -2 60 -2q176 0 274.5 88t98.5 240q0 113 -69 164t-216 51q-6 0 -21.5 -1t-23.5 -1z" />
<glyph unicode="S" horiz-adv-x="1132" d="M47 92l55 332h136l-2 -244l14 -20q94 -41 186 -41q129 0 209 69.5t80 176.5q0 61 -55 129q-16 20 -47 41.5t-102.5 60.5t-106.5 59q-125 76 -178.5 143.5t-53.5 174.5q0 186 145.5 306t383.5 120q154 0 331 -56l-55 -346h-123l4 226l-16 20q-63 35 -143 35 q-123 0 -203 -66.5t-80 -160.5q0 -74 52 -122t184 -122q6 -2 8 -4t6 -4l8 -4q166 -96 231.5 -164t65.5 -191q0 -190 -153.5 -322t-393.5 -132q-207 0 -387 106z" />
<glyph unicode="T" horiz-adv-x="1196" d="M76 1014l69 360h1139l-67 -360h-138l4 221l-28 27h-232l-211 -1121l23 -28l139 -13v-100h-590v102l142 9l28 32l207 1119h-231l-37 -27l-74 -221h-143z" />
<glyph unicode="U" horiz-adv-x="1435" d="M147 336q0 80 21 184l137 719l-24 27l-125 10v98h567v-96l-129 -10l-29 -25l-135 -715q-18 -102 -18 -149q0 -117 69.5 -180.5t198.5 -63.5q168 0 253 89t124 286l141 719l-20 35l-136 14v96h463v-96l-131 -14l-31 -29l-139 -721q-27 -139 -59.5 -225t-108.5 -162 q-154 -154 -450 -154q-211 0 -325 93.5t-114 269.5z" />
<glyph unicode="V" horiz-adv-x="1263" d="M55 1276v98h529v-98l-125 -8l-19 -33l152 -954l495 960l-14 27l-119 8v98h432v-94l-118 -18l-678 -1268h-199l-203 1241l-18 27z" />
<glyph unicode="W" horiz-adv-x="1886" d="M88 1276v98h524v-96l-125 -12l-22 -35l65 -854l459 997h197l104 -1016l383 879l-16 29l-119 10v98h434v-94l-129 -20l-559 -1260h-184l-109 1055l-487 -1055h-187l-96 1237l-20 25z" />
<glyph unicode="X" horiz-adv-x="1245" d="M-133 0v98l119 13l26 18l492 551l-252 567l-16 19l-130 8v100h562v-96l-125 -12l-23 -31l162 -375l332 379l-13 29l-114 10v96h461v-96l-134 -12l-471 -529l271 -612l18 -19l125 -10v-96h-567v98l131 11l24 30l-176 408l-362 -410l20 -28l129 -11v-98h-489z" />
<glyph unicode="Y" d="M53 1276v98h559v-98l-127 -12l-24 -29l174 -533l379 527l-19 33l-131 12v100h479v-96l-133 -18l-20 -19l-500 -676l-80 -426l23 -26l139 -13v-100h-582v100l138 13l32 32l74 392l-233 710l-19 17z" />
<glyph unicode="Z" horiz-adv-x="1171" d="M-35 0l6 102l891 1151h-436l-37 -20l-70 -223h-147l70 364h946l-6 -100l-893 -1153h493l33 29l78 251h145l-75 -401h-998z" />
<glyph unicode="[" horiz-adv-x="919" d="M104 -270l312 1720h551l-21 -115h-315l-271 -1493h316l-19 -112h-553z" />
<glyph unicode="\" horiz-adv-x="985" d="M43 1374h166l823 -1564h-162z" />
<glyph unicode="]" horiz-adv-x="919" d="M-86 -270l20 112h316l268 1495h-315l20 113h551l-309 -1720h-551z" />
<glyph unicode="^" horiz-adv-x="2048" d="M412 897l503 565h215l502 -565h-104l-506 397l-506 -397h-104z" />
<glyph unicode="_" horiz-adv-x="1024" d="M0 -311h1024v-172h-1024v172z" />
<glyph unicode="`" horiz-adv-x="1024" d="M336 1520h254l123 -390h-138z" />
<glyph unicode="a" horiz-adv-x="1171" d="M37 356q0 221 123 408q76 117 196.5 182.5t257.5 65.5q106 0 238 -51l76 49h121q-29 -88 -70 -312l-61 -331q-18 -100 -19 -144q0 -51 24.5 -80.5t61.5 -29.5q57 0 135 22v-76q-194 -71 -306 -71h-3q-154 0 -154 149v10q-173 -163 -323 -163h-2q-139 0 -217 98t-78 274z M299 385q0 -235 155 -235h1q88 0 207 96l96 542l-82 123q-4 0 -12.5 1t-14.5 1q-145 0 -247.5 -149.5t-102.5 -378.5z" />
<glyph unicode="b" horiz-adv-x="1138" d="M55 72l221 1259l-167 27v72l350 77h90q-4 -20 -17.5 -103t-25.5 -144l-72 -392q186 143 330 144q121 0 198.5 -100.5t77.5 -264.5q0 -297 -206 -504q-161 -161 -425 -161h-3q-193 0 -351 90zM309 137q68 -57 148 -57q123 0 224 156.5t101 377.5q0 238 -172 238 q-70 0 -188 -72z" />
<glyph unicode="c" horiz-adv-x="894" d="M33 373q0 223 135 407q76 104 198.5 167t245.5 63q106 0 166 -45t60 -121q0 -63 -46.5 -105.5t-123.5 -44.5l-131 209q-106 -31 -177 -164t-71 -319q0 -133 53 -205t150 -72q143 0 315 152v-121q-218 -194 -426 -194h-2q-156 0 -251 107.5t-95 285.5z" />
<glyph unicode="d" horiz-adv-x="1185" d="M43 362q0 215 113 392q82 125 205.5 193.5t271.5 68.5q76 0 168 -35l57 350l-172 27v69l356 80h86l-190 -1140q-18 -113 -18 -150q0 -47 24.5 -75.5t61.5 -28.5q59 0 137 22v-76q-194 -71 -309 -71h-3q-86 0 -125.5 40t-39.5 124v6q-174 -174 -332 -174q-129 0 -210 102 t-81 276zM301 387q0 -113 42 -176.5t114 -63.5q98 0 223 115l88 535l-86 123q-29 4 -41 4q-129 0 -234.5 -157t-105.5 -380z" />
<glyph unicode="e" horiz-adv-x="950" d="M39 371q0 301 231 497q162 137 359 138q119 0 186.5 -60.5t67.5 -163.5q0 -147 -138.5 -233t-392.5 -86q-10 0 -30.5 1t-32.5 1q-4 -45 -4 -62q0 -129 57 -198.5t162 -69.5q139 0 321 144l-4 -125q-221 -172 -420 -172q-170 0 -266 103.5t-96 285.5zM305 551 q166 8 268.5 81t102.5 167q0 47 -27.5 75.5t-73.5 28.5q-82 0 -155.5 -92t-114.5 -260z" />
<glyph unicode="f" horiz-adv-x="665" d="M-315 -311q0 94 82 129l219 -117q74 96 133 508l88 627l-137 -17l2 90l159 70q41 236 180.5 379t305.5 143q86 0 142 -41t56 -100q0 -47 -34.5 -84t-96.5 -51l-172 180q-90 -109 -151 -449h278v-120h-297l-75 -535q-43 -289 -148 -455q-86 -135 -191.5 -209.5 t-201.5 -74.5q-61 0 -101 37t-40 90z" />
<glyph unicode="g" horiz-adv-x="1058" d="M-61 -174q0 96 72.5 168t226.5 133v8q0 102 86 209q-113 31 -173.5 100.5t-60.5 163.5q0 172 128 286t327 114q125 0 254 -60h280v-106h-209q20 -72 21 -117q0 -170 -128 -281.5t-335 -113.5q-25 -39 -25 -78v-8l310 -148q96 -47 141 -97t45 -124q0 -129 -156.5 -225 t-396.5 -96q-186 0 -296.5 75.5t-110.5 196.5zM158 -121q0 -96 73.5 -159.5t190.5 -63.5q102 0 166.5 47t64.5 113q0 76 -118 131l-246 112q-131 -69 -131 -180zM336 580q0 -156 113 -156q78 0 141 99.5t63 236.5q0 158 -112 158q-76 0 -140.5 -101.5t-64.5 -236.5z" />
<glyph unicode="h" horiz-adv-x="1218" d="M41 0l268 1341l-178 21l-2 65l365 80h92q-35 -147 -76 -352l-70 -346q246 203 396 203q90 0 143 -53.5t53 -143.5q0 -57 -22 -166l-62 -282q-22 -102 -22 -146q0 -51 24.5 -79.5t61.5 -28.5q57 0 135 22v-76q-194 -71 -306 -71h-3q-166 0 -166 145q0 39 16 109l74 340 q18 90 18 137q0 117 -98 117t-260 -136l-127 -700h-254z" />
<glyph unicode="i" horiz-adv-x="651" d="M59 860v74l351 76h90l-131 -693q-10 -57 -11 -84q0 -112 99 -112h2q45 0 141 29v-84q-201 -80 -350 -80q-152 0 -152 159q0 37 19 138l110 551zM293 1329q0 68 45 112t113 44q63 0 100 -36t37 -95q0 -66 -45 -110t-111 -44q-63 0 -101 36t-38 93z" />
<glyph unicode="j" horiz-adv-x="608" d="M-299 -313q0 88 70 123l239 -97q45 57 74 166t57 305l97 650l-185 26v74l367 76h90l-111 -693q-20 -131 -36.5 -203.5t-58.5 -168t-107 -166.5q-199 -217 -357 -217q-63 0 -101 34t-38 91zM287 1327q0 66 45 110t112 44q63 0 100.5 -36t37.5 -95q0 -66 -45 -110t-111 -44 q-61 0 -100 37t-39 94z" />
<glyph unicode="k" horiz-adv-x="1144" d="M47 0l258 1343l-182 17v67l369 80h88l-199 -979l266 281q100 106 168 154.5t129 48.5q53 0 89 -39t36 -99q0 -129 -166 -178l-74 119q-131 -100 -188 -158q147 -342 190 -415q80 -133 177 -133q33 0 104 16v-80q-203 -59 -291 -59t-136 50t-99 171l-129 299l-95 -103 l-71 -403h-244z" />
<glyph unicode="l" horiz-adv-x="628" d="M70 133q0 27 14 109l203 1089l-168 27v72l350 77h90l-213 -1140q-22 -104 -22 -146q0 -50 23.5 -79t60.5 -29q72 0 165 30v-80q-224 -81 -319 -81h-2h-2q-180 0 -180 151z" />
<glyph unicode="m" horiz-adv-x="1808" d="M66 854v72l348 84h80l-39 -201q225 201 395 201q88 0 138 -50.5t54 -144.5q221 195 381 195q94 0 148.5 -54.5t54.5 -148.5q0 -51 -16 -133l-66 -307q-23 -100 -23 -147q1 -48 25 -78q24 -28 60 -29q59 0 137 22v-76q-194 -71 -306 -71h-3q-166 0 -166 145q0 37 16 109 l78 362q16 72 16 119q0 113 -102 113q-109 0 -242 -127l-121 -709h-251l118 616q14 76 15 103q0 119 -103 119q-94 0 -248 -127l-125 -711h-249l159 829z" />
<glyph unicode="n" horiz-adv-x="1228" d="M53 854v68l361 88h80l-41 -203q250 203 409 203q82 0 134.5 -55.5t52.5 -145.5q0 -55 -23 -162l-61 -280q-23 -109 -23 -152q0 -45 24.5 -73.5t61.5 -28.5q57 0 135 22v-78q-185 -69 -306 -69h-3q-166 0 -166 145q0 23 17 109l73 340q18 90 19 135q0 55 -27 87t-74 32 q-96 0 -256 -136l-121 -700h-260l164 831z" />
<glyph unicode="o" horiz-adv-x="1126" d="M39 403q0 256 178 441q160 166 393 166q193 0 304.5 -114t111.5 -308q0 -262 -178 -447q-158 -164 -393 -164q-193 0 -304.5 115.5t-111.5 310.5zM303 371q0 -287 174 -287q117 0 201 148.5t84 377.5q0 293 -178 293q-115 0 -198 -149.5t-83 -382.5z" />
<glyph unicode="p" horiz-adv-x="1157" d="M-129 -365l125 33l18 27l201 1147l-160 20v72l342 76h90l-28 -140q172 141 329 142q123 0 199 -96.5t76 -262.5q0 -289 -186 -483q-166 -176 -404 -176q-74 0 -160 33l-61 -357l190 -37v-79h-571v81zM332 143q70 -34 137 -34h4q137 0 235.5 147t98.5 371q0 111 -43 171 t-119 60q-82 0 -201 -88z" />
<glyph unicode="q" horiz-adv-x="1150" d="M49 362q0 266 158 453q168 201 414 201q102 0 233 -47l92 47h109q-43 -229 -70 -389l-164 -961l185 -35v-77h-576v81l127 25l23 29l79 446q-178 -147 -317 -147q-135 0 -214 99t-79 275zM301 391q0 -117 46 -179t130 -62q88 0 203 90l92 551l-88 127q-12 2 -39 2 q-125 0 -217 -123q-53 -70 -90 -182.5t-37 -223.5z" />
<glyph unicode="r" horiz-adv-x="919" d="M53 856v70l353 84h71l-57 -275q197 272 350 273q68 0 110 -41t42 -109q0 -76 -54.5 -125t-144.5 -49h-4l-55 156q-123 -51 -186.5 -138.5t-86.5 -226.5l-80 -475h-252l164 831z" />
<glyph unicode="s" horiz-adv-x="825" d="M-25 195q0 57 35 92t88 35q63 0 115 -48l-37 -149q70 -49 137.5 -49t110.5 42t43 105q0 16 -2 31.5t-9 30t-11.5 24.5t-17.5 23.5t-19.5 19.5t-24.5 19.5t-25.5 18.5t-30 20.5t-30.5 21.5q-106 74 -151.5 127t-45.5 123q0 137 116 232.5t290 95.5q111 0 173 -41t62 -111 q0 -55 -38.5 -90t-106.5 -37l-96 184q-29 4 -41 5q-66 0 -108 -34t-42 -83q0 -43 38 -82t126 -103q61 -45 92 -69.5t65 -62t47 -76.5t13 -91q0 -139 -115.5 -238t-287.5 -99q-139 0 -225.5 61.5t-86.5 151.5z" />
<glyph unicode="t" horiz-adv-x="749" d="M80 844v74l176 88l135 225h133l-47 -262h281v-119h-303l-93 -502q-12 -61 -12 -102q0 -129 121 -129q68 0 178 37v-82q-252 -88 -354 -88q-197 0 -197 194q0 61 15 131l102 541z" />
<glyph unicode="u" horiz-adv-x="1226" d="M57 858v64l355 75h77l-118 -612q-16 -88 -17 -121q0 -110 107 -110h2q96 0 246 98l139 721l244 28l-121 -634q-23 -109 -23 -150q0 -47 24.5 -75.5t61.5 -28.5q59 0 137 22v-76q-224 -77 -319 -77h-2q-154 0 -154 157v19q-236 -178 -377 -178q-100 0 -155 55t-55 155 q0 47 12 111l100 533z" />
<glyph unicode="v" horiz-adv-x="1007" d="M-16 868v66l323 76q57 -16 76.5 -60.5t28.5 -146.5l51 -582q186 229 287 436l-48 304q63 51 127 51t101 -38t37 -104q0 -115 -144.5 -341t-425.5 -531h-176q23 74 23 125q0 4 -1 13t-1 14l-43 425q-23 221 -49 269z" />
<glyph unicode="w" horiz-adv-x="1572" d="M-4 866v68l293 78h94l41 -748q225 416 354 701l193 16q14 -317 45 -786q217 289 289 454l-50 307q51 53 127 54q59 0 96.5 -40t37.5 -104q0 -119 -127 -319.5t-404 -546.5h-176l-41 707q-197 -381 -383 -707h-192l18 63l-45 779z" />
<glyph unicode="x" horiz-adv-x="1044" d="M-78 131q0 49 35 90t96 55l88 -108q133 92 240 303q-92 295 -143 367l-187 14v70l281 90h14q80 0 121 -79t94 -288q188 352 357 352q57 0 93 -36.5t36 -94.5q0 -117 -132 -155l-79 108q-121 -53 -228 -276q80 -276 111 -334q51 -98 141 -98q55 0 113 14v-80 q-184 -57 -271 -57q-115 0 -173 85t-103 292q-102 -188 -187 -277.5t-171 -89.5q-59 0 -102.5 40t-43.5 93z" />
<glyph unicode="y" horiz-adv-x="1011" d="M-160 -285q0 53 32 90t87 48l137 -129q139 12 305 329h-77l-123 649q-14 84 -51 154l-179 16v68l316 72q63 -12 97 -86t58 -230l70 -446q170 424 313 760h64l162 -54v-55l-121 -67q-90 -121 -215 -404t-185 -387q-270 -485 -518 -485q-72 0 -122 47t-50 110z" />
<glyph unicode="z" horiz-adv-x="952" d="M-41 55l670 721l-178 -37q-109 76 -183 76q-63 0 -106 -45l119 -137q-47 -86 -123 -86q-47 0 -75 35.5t-28 95.5q0 72 54 162q104 174 262 174q45 0 85 -12.5t88 -37t62 -30.5q59 -25 109 -25q20 0 30 2l48 117l151 -94l-678 -713l178 49q117 -86 197 -86q66 0 121 52 l-131 147q43 90 119 90q49 0 83.5 -40t34.5 -101q0 -115 -94 -226q-95 -110 -231 -110h-2q-68 0 -181.5 42t-160.5 42q-23 0 -47 -6l-50 -103z" />
<glyph unicode="{" horiz-adv-x="997" d="M96 539v116h41q139 0 192.5 58.5t53.5 204.5v172q0 197 102.5 275.5t348.5 78.5h45v-105q-152 -4 -205 -58t-53 -198v-127q0 -162 -71 -246.5t-231 -111.5q156 -25 230 -111t74 -243v-150q0 -150 50 -204t206 -56v-108q-12 0 -33 -1t-31 -1q-240 0 -336 83.5t-96 296.5 v166q0 150 -54.5 209.5t-191.5 59.5h-41z" />
<glyph unicode="|" horiz-adv-x="1024" d="M424 -483v2048h178v-2048h-178z" />
<glyph unicode="}" horiz-adv-x="997" d="M121 -166q156 2 206 56.5t50 203.5v150q0 307 303 354q-160 27 -231.5 112t-71.5 246v127q0 141 -52.5 196.5t-203.5 59.5v105h45q246 0 348 -79t102 -275v-172q0 -145 52.5 -205t187.5 -60q6 0 22.5 1t24.5 1v-116h-41q-137 0 -191.5 -59.5t-54.5 -209.5v-166 q0 -213 -96 -296.5t-336 -83.5q-10 0 -30.5 1t-32.5 1v108z" />
<glyph unicode="~" horiz-adv-x="1705" d="M178 434v187q211 143 387 143q119 0 293 -59q14 -4 49 -16.5t50.5 -18.5t46 -15.5t50 -13.5t46 -7t51.5 -3q166 0 379 153v-184q-205 -141 -381 -141q-90 0 -191 35q-25 8 -80 27.5t-84.5 28.5t-73.5 21.5t-82 17.5t-75 5q-158 0 -385 -160z" />
<glyph unicode="&#xa1;" horiz-adv-x="696" d="M88 106q0 45 31 144l231 733h107l-43 -727q-8 -139 -53.5 -204.5t-143.5 -65.5q-61 0 -95 31.5t-34 88.5zM293 1227q0 70 52 122t122 52q55 0 95 -40t40 -97q0 -70 -52 -121t-120 -51q-59 0 -98 39t-39 96z" />
<glyph unicode="&#xa2;" d="M94 428q0 246 166 418t438 196l39 205h111l-39 -203q203 -16 287 -59l-54 -266h-124l4 182q-61 33 -134 37l-155 -827q80 4 153 34l60 185h131l-55 -279q-147 -47 -310 -51l-41 -211h-110l39 215q-190 25 -298 138.5t-108 285.5zM342 412q0 -252 184 -297l154 817 q-150 -29 -244 -173t-94 -347z" />
<glyph unicode="&#xa3;" d="M-23 0l19 154q139 25 200.5 130t86.5 328h-142l15 123h139q20 313 165.5 481t385.5 168q135 0 220 -62t85 -146q0 -61 -45 -98.5t-123 -37.5q-27 0 -39 2l-80 238h-14q-133 0 -206 -133t-97 -412h368l-16 -123h-371q-37 -276 -278 -407l6 -12q102 12 205 12h543l-25 -205 h-1002z" />
<glyph unicode="&#xa4;" horiz-adv-x="1241" d="M76 432l203 205q-80 109 -80 248t80 248l-203 204l92 93l203 -203q109 82 250 82q143 0 251 -82l203 203l94 -93l-204 -204q80 -109 79.5 -248.5t-79.5 -247.5l204 -205l-94 -92l-203 205q-113 -82 -249 -82q-143 0 -252 82l-203 -205zM332 885q0 -121 85 -205t205.5 -84 t205.5 84t85 205q0 119 -86 205t-204.5 86t-204.5 -86t-86 -205z" />
<glyph unicode="&#xa5;" horiz-adv-x="1230" d="M20 479v101h429l-66 194h-307v103h264l-125 370l-115 21v100h539v-100l-125 -13l-22 -22l174 -518l362 499l-8 33l-100 23v98h413v-100l-123 -23l-272 -368h260v-103h-344l-143 -194h428v-101h-441l-59 -338l29 -30l135 -11v-100h-600v100l145 11l43 30l60 338h-431z" />
<glyph unicode="&#xa6;" horiz-adv-x="1024" d="M424 -350v758h178v-758h-178zM424 674v758h178v-758h-178z" />
<glyph unicode="&#xa7;" horiz-adv-x="1024" d="M-20 -223l49 280h116l-6 -188q88 -51 176 -51q98 0 166 56t68 130q0 29 -11.5 53.5t-24.5 41t-46 38t-54.5 33.5t-72.5 39t-80 41q-190 102 -190 282q0 121 78.5 219.5t228.5 155.5q-156 92 -156 221q0 152 130 249.5t349 97.5q137 0 301 -52l-49 -278h-110l10 168 q-92 57 -174 57q-94 0 -161.5 -56.5t-67.5 -127.5q0 -31 9 -53.5t37.5 -45t48 -34t74 -40t82.5 -42.5q117 -66 170.5 -133.5t53.5 -161.5q0 -113 -84 -218.5t-230 -162.5q162 -96 162 -221q0 -152 -132 -257.5t-345 -105.5q-159 0 -315 66zM260 614q0 -80 59.5 -135 t200.5 -127q209 106 209 246q0 137 -256 254q-102 -37 -157.5 -99.5t-55.5 -138.5z" />
<glyph unicode="&#xa8;" horiz-adv-x="1024" d="M283 1319q0 57 37.5 96t91 39t92.5 -40t39 -95q0 -53 -39 -93t-92.5 -40t-91 39t-37.5 94zM705 1319q0 57 38.5 96t92 39t92.5 -40t39 -95t-39 -94t-92.5 -39t-92 39t-38.5 94z" />
<glyph unicode="&#xa9;" horiz-adv-x="1830" d="M129 696q0 326 231.5 561.5t567.5 235.5q158 0 306 -62.5t261 -175.5q109 -109 168 -257t59 -310q0 -154 -63.5 -300t-179.5 -263q-231 -227 -564 -227q-317 0 -553 235q-233 229 -233 563zM227 696q0 -293 205 -497q211 -207 494 -207q291 0 491 207q207 213 207 497 q0 295 -205 500q-207 207 -491 207q-291 0 -496 -209q-205 -211 -205 -498zM442 694q0 211 143.5 346.5t375.5 135.5q145 0 292 -52v-247h-108l-31 161q-61 37 -129 37q-141 0 -229 -106.5t-88 -278.5q0 -170 89 -274.5t224 -104.5q59 0 135 33l31 174h106v-256 q-145 -51 -292 -51q-236 0 -377.5 134t-141.5 349z" />
<glyph unicode="&#xaa;" horiz-adv-x="878" d="M29 915q0 154 92 285q57 82 147 128t193 46q74 0 178 -37l57 35h90q-27 -84 -51 -217l-47 -233q-14 -82 -14 -101q0 -35 19.5 -56.5t45.5 -21.5q41 0 101 17v-53q-143 -49 -232 -50q-115 0 -114 105v6q-131 -115 -244 -115q-104 0 -162.5 68.5t-58.5 193.5zM225 936 q0 -166 117 -166q68 0 154 68l73 379l-61 86q-2 0 -9 1t-12 1q-109 0 -185.5 -104.5t-76.5 -264.5z" />
<glyph unicode="&#xab;" horiz-adv-x="921" d="M20 406l33 172l412 292l-31 -170l-264 -208l186 -209l-30 -170zM432 406l33 172l412 292l-31 -170l-264 -208l186 -209l-31 -170z" />
<glyph unicode="&#xac;" horiz-adv-x="1705" d="M254 696v166h1198v-502h-166v336h-1032z" />
<glyph unicode="&#xad;" horiz-adv-x="655" d="M20 393l37 201h518l-34 -201h-521z" />
<glyph unicode="&#xae;" horiz-adv-x="1830" d="M129 696q0 326 231.5 561.5t567.5 235.5q158 0 306 -62.5t261 -175.5q109 -109 168 -257t59 -310q0 -154 -63.5 -300t-179.5 -263q-231 -227 -564 -227q-317 0 -553 235q-233 229 -233 563zM227 705q0 -299 199 -500q209 -213 500 -213q289 0 491 207q207 211 207 497 q0 289 -199 494q-207 213 -497.5 213t-495.5 -209q-205 -204 -205 -489zM510 1073v72h459q324 0 323 -221q0 -188 -248 -232q29 -6 54.5 -16t42 -17.5t34 -28t24.5 -26.5t21.5 -35.5t16.5 -35t16.5 -43t16.5 -41.5q27 -70 62.5 -96.5t109.5 -26.5h10v-76q-86 -12 -125 -12 q-100 0 -164 41q-29 18 -50 46.5t-29.5 47t-21.5 63.5t-20 60q-29 80 -74.5 112.5t-127.5 32.5h-25v-295l119 -22v-76h-418v74l107 24v703zM815 727q14 -2 43 -2q223 0 223 168q0 172 -231 172q-4 0 -16.5 -1t-18.5 -1v-336z" />
<glyph unicode="&#xaf;" horiz-adv-x="1024" d="M283 1243l24 139h678l-24 -139h-678z" />
<glyph unicode="&#xb0;" horiz-adv-x="673" d="M43 1163q0 125 86 211t209 86t209 -87t86 -210q0 -121 -87 -208t-210 -87t-208 85t-85 210zM152 1165.5q0 -75.5 55 -131t131 -55.5q78 0 131 55.5t53 131t-54 130t-130 54.5q-78 0 -132 -54.5t-54 -130z" />
<glyph unicode="&#xb1;" horiz-adv-x="1705" d="M254 14v168h1198v-168h-1198zM254 707v165h514v334h170v-334h514v-165h-514v-334h-170v334h-514z" />
<glyph unicode="&#xb2;" horiz-adv-x="792" d="M-4 549l8 92q287 180 413 299t126 240q0 59 -39 94t-105 35q-35 0 -77 -13l-33 -166q-39 -18 -80 -18q-39 0 -60.5 19.5t-21.5 54.5q0 55 55 104q106 96 271 96q121 0 192.5 -57t71.5 -149q0 -119 -132 -241t-407 -265h377l45 110h90l-47 -235h-647z" />
<glyph unicode="&#xb3;" horiz-adv-x="792" d="M16 682q0 39 28 64.5t69 25.5q25 0 61 -12l16 -133q51 -20 78 -21q100 0 164 55.5t64 143.5q0 129 -160 129q-41 0 -84 -8l16 90q12 -2 35 -2q111 0 175.5 49t64.5 129q0 53 -39 87t-105 34q-35 0 -77 -17l-27 -143q-45 -18 -74 -18q-37 0 -59.5 20.5t-22.5 52.5 q0 68 94.5 124.5t237.5 56.5q119 0 188.5 -51.5t69.5 -129.5t-71.5 -137t-198.5 -84q223 -12 223 -174q0 -109 -123 -195q-119 -84 -287 -83q-115 0 -185.5 44t-70.5 103z" />
<glyph unicode="&#xb4;" horiz-adv-x="1024" d="M508 1130l274 390h252l-389 -390h-137z" />
<glyph unicode="&#xb5;" horiz-adv-x="1183" d="M-109 -319q0 45 27 136t72 247.5t78 308.5l108 512h207l-100 -467q-20 -94 -21 -139q0 -63 37 -100.5t102 -37.5q88 0 139.5 53.5t75.5 167.5l111 523h209l-113 -533q-18 -88 -18 -125q0 -90 86 -90q78 0 129 90q8 16 18.5 40t16.5 36t16 22.5t23 10.5q23 0 22 -31 q0 -27 -16.5 -84t-40.5 -102q-82 -143 -219 -144q-172 0 -176 211q-86 -211 -267 -211q-203 0 -225 226q-18 -104 -34.5 -223t-25 -179.5t-22.5 -118t-37.5 -79t-62.5 -21.5q-47 0 -73 27t-26 74z" />
<glyph unicode="&#xb6;" horiz-adv-x="1007" d="M39 950q0 223 123 323.5t385 100.5h407v-88l-127 -20v-1428h-116v1438h-150v-739h-31q-250 0 -370.5 101t-120.5 312z" />
<glyph unicode="&#xb7;" horiz-adv-x="598" d="M145 686.5q0 65.5 45.5 112.5t108.5 47q66 0 112 -46t46 -114q0 -66 -46 -111t-112 -45q-63 0 -108.5 45.5t-45.5 111z" />
<glyph unicode="&#xb8;" horiz-adv-x="1024" d="M119 -449l18 97q78 -16 123 -17q68 0 104.5 25t36.5 65q0 53 -82 54q-10 0 -43 -4l43 229h101l-23 -117q12 2 33 2q139 0 139 -121q0 -98 -80.5 -166.5t-207.5 -68.5q-76 -1 -162 22z" />
<glyph unicode="&#xb9;" horiz-adv-x="792" d="M106 549v63l144 9l20 20l129 612l-16 7l-190 -21v59l317 88h80l-156 -749l15 -19l124 -8v-61h-467z" />
<glyph unicode="&#xba;" horiz-adv-x="845" d="M29 948q0 178 135 307q117 117 295 117q143 0 227 -80t84 -215q0 -184 -133 -313q-121 -115 -295 -115q-143 0 -228 81t-85 218zM227 926q0 -201 131 -201q88 0 150.5 103.5t62.5 265.5q0 205 -133 204q-86 0 -148.5 -104t-62.5 -268z" />
<glyph unicode="&#xbb;" horiz-adv-x="921" d="M-27 113l31 170l264 209l-186 208l31 170l305 -292l-33 -172zM385 113l31 170l264 209l-186 208l30 170l305 -292l-30 -172z" />
<glyph unicode="&#xbc;" horiz-adv-x="1853" d="M102 604v60l136 6l22 20l121 572l-14 6l-185 -21v58l303 79h78l-147 -698l12 -18l121 -6v-58h-447zM367 0l968 1374h144l-969 -1374h-143zM1096 207l20 90l524 479h125l-100 -479h141l-16 -90h-143l-54 -244h-147l51 244h-401zM1235 297h283l71 326z" />
<glyph unicode="&#xbd;" horiz-adv-x="1853" d="M102 604v60l136 6l22 20l121 572l-14 6l-185 -21v58l303 79h78l-147 -698l12 -18l121 -6v-58h-447zM367 0l968 1374h144l-969 -1374h-143zM1094 0l8 86q274 168 394 278.5t120 223.5q0 57 -37 89t-100 32q-29 0 -74 -11l-33 -155q-37 -18 -74 -19q-80 0 -79 72 q0 49 53 96q104 90 258 90q115 0 184.5 -54t69.5 -140q0 -111 -127 -224.5t-389 -246.5h360l43 102h84l-45 -219h-616z" />
<glyph unicode="&#xbe;" horiz-adv-x="1853" d="M16 727q0 37 26 61.5t64 24.5q25 0 60 -12l16 -125q51 -18 74 -19q96 0 156.5 52.5t60.5 134.5q0 119 -151 119q-35 0 -82 -7l16 84q10 -2 33 -2q106 0 167.5 46t61.5 120q0 51 -37 82t-100 31q-37 0 -74 -14l-26 -136q-45 -16 -70 -16q-33 0 -55.5 19.5t-22.5 48.5 q0 66 90 116.5t226 50.5q115 0 181 -47t66 -118.5t-68.5 -129t-189.5 -77.5q213 -12 213 -164q0 -100 -116 -182q-115 -76 -275 -76q-109 0 -176.5 40t-67.5 95zM367 0l968 1374h144l-969 -1374h-143zM1096 207l20 90l524 479h125l-100 -479h141l-16 -90h-143l-54 -244h-147 l51 244h-401zM1235 297h283l71 326z" />
<glyph unicode="&#xbf;" horiz-adv-x="1007" d="M12 301q0 164 132 294t386 208l35 186h133l-53 -276q-178 -57 -272 -165t-94 -247q0 -94 57 -145.5t164 -51.5h6l133 232q33 4 47 4q127 0 127 -104q0 -98 -113.5 -174t-293.5 -76q-184 0 -289 85t-105 230zM512 1245q0 63 45 108.5t109 45.5q61 0 107 -45t46 -109 q0 -66 -45 -112t-108.5 -46t-108.5 46t-45 112z" />
<glyph unicode="&#xc0;" horiz-adv-x="1298" d="M-139 0v98l114 17l719 1271h211l209 -1245l21 -26l118 -15v-100h-538v100l125 13l22 30l-57 340h-457l-188 -344l20 -30l121 -9v-100h-440zM410 596h374l-84 532zM504 1901h254l123 -390h-138z" />
<glyph unicode="&#xc1;" horiz-adv-x="1298" d="M-139 0v98l114 17l719 1271h211l209 -1245l21 -26l118 -15v-100h-538v100l125 13l22 30l-57 340h-457l-188 -344l20 -30l121 -9v-100h-440zM410 596h374l-84 532zM676 1511l274 390h252l-389 -390h-137z" />
<glyph unicode="&#xc2;" horiz-adv-x="1298" d="M-139 0v98l114 17l719 1271h211l209 -1245l21 -26l118 -15v-100h-538v100l125 13l22 30l-57 340h-457l-188 -344l20 -30l121 -9v-100h-440zM410 596h374l-84 532zM451 1511l301 390h178l151 -390h-157l-109 256l-205 -256h-159z" />
<glyph unicode="&#xc3;" horiz-adv-x="1298" d="M-139 0v98l114 17l719 1271h211l209 -1245l21 -26l118 -15v-100h-538v100l125 13l22 30l-57 340h-457l-188 -344l20 -30l121 -9v-100h-440zM410 596h374l-84 532zM438 1548q18 133 80 206t152 73q66 0 158 -48t120 -48q86 0 105 129h108q-20 -133 -80.5 -205t-148.5 -72 q-72 0 -165 47t-116 47q-84 0 -100 -129h-113z" />
<glyph unicode="&#xc4;" horiz-adv-x="1298" d="M-139 0v98l114 17l719 1271h211l209 -1245l21 -26l118 -15v-100h-538v100l125 13l22 30l-57 340h-457l-188 -344l20 -30l121 -9v-100h-440zM410 596h374l-84 532zM451 1700q0 57 37.5 96t91 39t92.5 -40t39 -95q0 -53 -39 -93t-92.5 -40t-91 39t-37.5 94zM872 1700 q0 57 39 96t92.5 39t92.5 -40t39 -95t-39 -94t-92.5 -39t-92.5 39t-39 94z" />
<glyph unicode="&#xc5;" horiz-adv-x="1298" d="M-139 0v98l114 17l719 1271h211l211 -1249l27 -24l110 -13v-100h-538v100l125 13l22 30l-57 340h-457l-186 -344l18 -30l121 -9v-100h-440zM412 596h372l-84 532zM584 1744.5q0 102.5 70.5 173.5t170.5 71q102 0 171 -70t69 -174.5t-68.5 -175t-171.5 -70.5 q-100 0 -170.5 71.5t-70.5 174zM692 1745q0 -57 39 -98t92 -41q55 0 95 41t40 98t-38.5 97t-94 40t-94.5 -40t-39 -97z" />
<glyph unicode="&#xc6;" horiz-adv-x="1830" d="M-209 0v98l135 27l858 1108l-16 29l-125 14v98h1190l-66 -321h-129l-4 174l-22 30h-377l-94 -489h243l33 31l47 147h117l-90 -473h-109v150l-22 28h-240l-100 -532h450l33 28l74 220h137l-74 -367h-1026v96l127 15l33 32l72 373h-447l-282 -371l8 -30l127 -17v-98h-461z M487 633h383l121 659z" />
<glyph unicode="&#xc7;" horiz-adv-x="1280" d="M76 557q0 299 192 543q111 139 280 220t353 81q188 0 402 -70l-64 -346h-135l-2 223l-21 37q-80 29 -135 29q-225 0 -371 -150q-215 -219 -215 -585q0 -209 106.5 -326t291.5 -117q57 0 116 15l39 36l95 254h137l-66 -354q-219 -74 -420 -74q-264 0 -423.5 160 t-159.5 424zM369 -449l18 97q78 -16 123 -17q68 0 104.5 25t36.5 65q0 53 -82 54q-10 0 -43 -4l43 229h101l-23 -117q12 2 33 2q139 0 139 -121q0 -98 -81 -166.5t-208 -68.5q-75 -1 -161 22z" />
<glyph unicode="&#xc8;" horiz-adv-x="1189" d="M-45 0v98l133 13l29 30l207 1090l-19 33l-131 10v100h1014l-62 -319h-131l-2 174l-22 31h-385l-92 -492h249l31 29l51 151h117l-90 -477h-111l4 154l-26 28h-248l-102 -534h462l29 28l78 220h135l-67 -367h-1051zM451 1901h254l122 -390h-137z" />
<glyph unicode="&#xc9;" horiz-adv-x="1189" d="M-45 0v98l133 13l29 30l207 1090l-19 33l-131 10v100h1014l-62 -319h-131l-2 174l-22 31h-385l-92 -492h249l31 29l51 151h117l-90 -477h-111l4 154l-26 28h-248l-102 -534h462l29 28l78 220h135l-67 -367h-1051zM623 1511l274 390h252l-389 -390h-137z" />
<glyph unicode="&#xca;" horiz-adv-x="1189" d="M-45 0v98l133 13l29 30l207 1090l-19 33l-131 10v100h1014l-62 -319h-131l-2 174l-22 31h-385l-92 -492h249l31 29l51 151h117l-90 -477h-111l4 154l-26 28h-248l-102 -534h462l29 28l78 220h135l-67 -367h-1051zM397 1511l301 390h179l151 -390h-158l-108 256l-205 -256 h-160z" />
<glyph unicode="&#xcb;" horiz-adv-x="1189" d="M-45 0v98l133 13l29 30l207 1090l-19 33l-131 10v100h1014l-62 -319h-131l-2 174l-22 31h-385l-92 -492h249l31 29l51 151h117l-90 -477h-111l4 154l-26 28h-248l-102 -534h462l29 28l78 220h135l-67 -367h-1051zM397 1700q0 57 38 96t91.5 39t92 -40t38.5 -95 q0 -53 -38.5 -93t-92 -40t-91.5 39t-38 94zM819 1700q0 57 39 96t92.5 39t92 -40t38.5 -95t-38.5 -94t-92 -39t-92.5 39t-39 94z" />
<glyph unicode="&#xcc;" horiz-adv-x="722" d="M-41 0v100l135 11l31 30l207 1098l-21 29l-133 8v98h578v-98l-135 -8l-33 -29l-207 -1102l25 -28l133 -9v-100h-580zM217 1901h254l123 -390h-137z" />
<glyph unicode="&#xcd;" horiz-adv-x="722" d="M-41 0v100l135 11l31 30l207 1098l-21 29l-133 8v98h578v-98l-135 -8l-33 -29l-207 -1102l25 -28l133 -9v-100h-580zM389 1511l275 390h251l-389 -390h-137z" />
<glyph unicode="&#xce;" horiz-adv-x="722" d="M-41 0v100l135 11l31 30l207 1098l-21 29l-133 8v98h578v-98l-135 -8l-33 -29l-207 -1102l25 -28l133 -9v-100h-580zM164 1511l301 390h178l152 -390h-158l-109 256l-204 -256h-160z" />
<glyph unicode="&#xcf;" horiz-adv-x="722" d="M-41 0v100l135 11l31 30l207 1098l-21 29l-133 8v98h578v-98l-135 -8l-33 -29l-207 -1102l25 -28l133 -9v-100h-580zM164 1700q0 57 38 96t91 39t92 -40t39 -95q0 -53 -39 -93t-92 -40t-91 39t-38 94zM586 1700q0 57 39 96t92 39t92 -40t39 -95t-39 -94t-92 -39t-92 39 t-39 94z" />
<glyph unicode="&#xd0;" horiz-adv-x="1437" d="M-51 0v100l135 11l29 30l98 523h-166l23 122h168l83 449l-20 31l-131 10v98h553q311 0 471 -134t160 -388q0 -373 -254 -631q-221 -221 -637 -221h-512zM371 117h84q299 0 446 200q76 102 120 247t44 294q0 190 -97.5 296t-273.5 106h-110l-88 -474h264l-25 -122h-264z " />
<glyph unicode="&#xd1;" horiz-adv-x="1458" d="M-53 0v102l133 11l29 30l208 1096l-22 29l-131 10v96h452v-49l420 -993l174 907l-24 27l-133 14v94h469v-96l-131 -10l-33 -27l-232 -1241h-211l-471 1110l-184 -963l19 -34l135 -13v-100h-467zM518 1548q18 133 79.5 206t152.5 73q66 0 157.5 -48t120.5 -48 q86 0 105 129h108q-20 -133 -80.5 -205t-148.5 -72q-72 0 -165 47t-116 47q-84 0 -100 -129h-113z" />
<glyph unicode="&#xd2;" horiz-adv-x="1492" d="M78 543q0 322 188 569q102 137 255 213t323 76q256 0 412.5 -155.5t156.5 -409.5q0 -324 -188 -570q-109 -141 -259.5 -217t-324.5 -76q-254 0 -408.5 157t-154.5 413zM360 524q0 -197 84 -311.5t220 -114.5q190 0 329 232q131 219 131 522q0 203 -79.5 314.5 t-219.5 111.5q-188 0 -325 -229q-140 -230 -140 -525zM602 1901h254l123 -390h-137z" />
<glyph unicode="&#xd3;" horiz-adv-x="1492" d="M78 543q0 322 188 569q102 137 255 213t323 76q256 0 412.5 -155.5t156.5 -409.5q0 -324 -188 -570q-109 -141 -259.5 -217t-324.5 -76q-254 0 -408.5 157t-154.5 413zM360 524q0 -197 84 -311.5t220 -114.5q190 0 329 232q131 219 131 522q0 203 -79.5 314.5 t-219.5 111.5q-188 0 -325 -229q-140 -230 -140 -525zM774 1511l275 390h251l-389 -390h-137z" />
<glyph unicode="&#xd4;" horiz-adv-x="1492" d="M78 543q0 322 188 569q102 137 255 213t323 76q256 0 412.5 -155.5t156.5 -409.5q0 -324 -188 -570q-109 -141 -259.5 -217t-324.5 -76q-254 0 -408.5 157t-154.5 413zM360 524q0 -197 84 -311.5t220 -114.5q190 0 329 232q131 219 131 522q0 203 -79.5 314.5 t-219.5 111.5q-188 0 -325 -229q-140 -230 -140 -525zM549 1511l301 390h178l152 -390h-158l-109 256l-204 -256h-160z" />
<glyph unicode="&#xd5;" horiz-adv-x="1492" d="M78 543q0 322 188 569q102 137 255 213t323 76q256 0 412.5 -155.5t156.5 -409.5q0 -324 -188 -570q-109 -141 -259.5 -217t-324.5 -76q-254 0 -408.5 157t-154.5 413zM360 524q0 -197 84 -311.5t220 -114.5q190 0 329 232q131 219 131 522q0 203 -79.5 314.5 t-219.5 111.5q-188 0 -325 -229q-140 -230 -140 -525zM537 1548q18 133 79.5 206t151.5 73q66 0 158 -48t121 -48q86 0 104 129h109q-20 -133 -81 -205t-149 -72q-72 0 -165 47t-115 47q-84 0 -101 -129h-112z" />
<glyph unicode="&#xd6;" horiz-adv-x="1492" d="M78 543q0 322 188 569q102 137 255 213t323 76q256 0 412.5 -155.5t156.5 -409.5q0 -324 -188 -570q-109 -141 -259.5 -217t-324.5 -76q-254 0 -408.5 157t-154.5 413zM360 524q0 -197 84 -311.5t220 -114.5q190 0 329 232q131 219 131 522q0 203 -79.5 314.5 t-219.5 111.5q-188 0 -325 -229q-140 -230 -140 -525zM549 1700q0 57 38 96t91 39t92 -40t39 -95q0 -53 -39 -93t-92 -40t-91 39t-38 94zM971 1700q0 57 39 96t92 39t92 -40t39 -95t-39 -94t-92 -39t-92 39t-39 94z" />
<glyph unicode="&#xd7;" horiz-adv-x="1705" d="M287 152l458 458l-458 461l116 117l459 -459l461 459l117 -117l-459 -461l459 -458l-117 -119l-461 461l-459 -461z" />
<glyph unicode="&#xd8;" horiz-adv-x="1492" d="M76 524q0 356 211 611q104 127 251.5 195.5t315.5 68.5q147 0 252 -51l125 188l86 -57l-121 -183q217 -164 217 -458q0 -342 -205 -592q-223 -272 -571 -273q-164 0 -287 68l-139 -207l-76 64l131 198q-190 174 -190 428zM348 539q0 -137 45 -258l623 933q-78 68 -187 68 q-193 0 -329 -209q-152 -229 -152 -534zM453 186q86 -94 211 -94q190 0 327 207q147 223 148 547q0 176 -62 280z" />
<glyph unicode="&#xd9;" horiz-adv-x="1435" d="M147 336q0 80 21 184l137 719l-24 27l-125 10v98h567v-96l-129 -10l-29 -25l-135 -715q-18 -102 -18 -149q0 -117 69.5 -180.5t198.5 -63.5q168 0 253 89t124 286l141 719l-20 35l-136 14v96h463v-96l-131 -14l-31 -29l-139 -721q-27 -139 -59.5 -225t-108.5 -162 q-154 -154 -450 -154q-211 0 -325 93.5t-114 269.5zM573 1901h254l123 -390h-137z" />
<glyph unicode="&#xda;" horiz-adv-x="1435" d="M147 336q0 80 21 184l137 719l-24 27l-125 10v98h567v-96l-129 -10l-29 -25l-135 -715q-18 -102 -18 -149q0 -117 69.5 -180.5t198.5 -63.5q168 0 253 89t124 286l141 719l-20 35l-136 14v96h463v-96l-131 -14l-31 -29l-139 -721q-27 -139 -59.5 -225t-108.5 -162 q-154 -154 -450 -154q-211 0 -325 93.5t-114 269.5zM745 1511l275 390h252l-389 -390h-138z" />
<glyph unicode="&#xdb;" horiz-adv-x="1435" d="M147 336q0 80 21 184l137 719l-24 27l-125 10v98h567v-96l-129 -10l-29 -25l-135 -715q-18 -102 -18 -149q0 -117 69.5 -180.5t198.5 -63.5q168 0 253 89t124 286l141 719l-20 35l-136 14v96h463v-96l-131 -14l-31 -29l-139 -721q-27 -139 -59.5 -225t-108.5 -162 q-154 -154 -450 -154q-211 0 -325 93.5t-114 269.5zM520 1511l301 390h178l152 -390h-158l-108 256l-205 -256h-160z" />
<glyph unicode="&#xdc;" horiz-adv-x="1435" d="M147 336q0 80 21 184l137 719l-24 27l-125 10v98h567v-96l-129 -10l-29 -25l-135 -715q-18 -102 -18 -149q0 -117 69.5 -180.5t198.5 -63.5q168 0 253 89t124 286l141 719l-20 35l-136 14v96h463v-96l-131 -14l-31 -29l-139 -721q-27 -139 -59.5 -225t-108.5 -162 q-154 -154 -450 -154q-211 0 -325 93.5t-114 269.5zM520 1700q0 57 38 96t91 39t92 -40t39 -95q0 -53 -39 -93t-92 -40t-91 39t-38 94zM942 1700q0 57 39 96t92 39t92 -40t39 -95t-39 -94t-92 -39t-92 39t-39 94z" />
<glyph unicode="&#xdd;" d="M53 1276v98h559v-98l-127 -12l-24 -29l174 -533l379 527l-19 33l-131 12v100h479v-96l-133 -18l-20 -19l-500 -676l-80 -426l23 -26l139 -13v-100h-582v100l138 13l32 32l74 392l-233 710l-19 17zM627 1511l274 390h252l-389 -390h-137z" />
<glyph unicode="&#xde;" horiz-adv-x="1179" d="M-53 0v100l129 11l30 26l205 1086l-20 34l-127 11v94h565v-94l-133 -13l-27 -26l-22 -117h96q248 0 367.5 -83t119.5 -261q0 -225 -166.5 -370.5t-449.5 -145.5q-78 0 -131 4l-21 -115l19 -32l133 -11v-98h-567zM406 371q20 -2 59 -2q184 0 285.5 103t101.5 292 q0 233 -279 233q-33 0 -49 -2z" />
<glyph unicode="&#xdf;" horiz-adv-x="1273" d="M-330 -303q0 88 82 125l219 -115q86 117 146 547l82 580q96 676 620 675q158 0 248 -81.5t90 -223.5q0 -98 -53 -274q-20 2 -60 2q-221 0 -221 -148q0 -43 29 -76.5t96 -84.5q10 -8 41 -32t39 -31t32.5 -27.5t33 -29.5t26 -28.5t23.5 -34t14 -34t11 -41t3 -43.5 q0 -145 -112.5 -243.5t-284.5 -98.5q-137 0 -226 62t-89 144q0 63 35.5 100.5t95.5 37.5q55 0 106 -52l-34 -137q55 -49 124 -49q76 0 120 40t44 103q0 41 -22.5 76t-48 55.5t-86.5 63.5q-113 78 -161 134t-48 130q0 119 80.5 201t222.5 102q47 143 47 244q0 78 -37 119 t-106 41q-141 0 -224.5 -132.5t-124.5 -404.5l-77 -532q-43 -305 -142 -465q-86 -137 -197.5 -217t-207.5 -80q-61 0 -104.5 38t-43.5 95z" />
<glyph unicode="&#xe0;" horiz-adv-x="1171" d="M37 356q0 221 123 408q76 117 196.5 182.5t257.5 65.5q106 0 238 -51l76 49h121q-29 -88 -70 -312l-61 -331q-18 -100 -19 -144q0 -51 24.5 -80.5t61.5 -29.5q57 0 135 22v-76q-197 -72 -309 -71q-154 0 -154 149v10q-174 -164 -325 -163q-139 0 -217 98t-78 274z M299 385q0 -236 156 -235q88 0 207 96l96 542l-82 123q-4 0 -12.5 1t-14.5 1q-145 0 -247.5 -149.5t-102.5 -378.5zM410 1520h254l122 -390h-137z" />
<glyph unicode="&#xe1;" horiz-adv-x="1171" d="M37 356q0 221 123 408q76 117 196.5 182.5t257.5 65.5q106 0 238 -51l76 49h121q-29 -88 -70 -312l-61 -331q-18 -100 -19 -144q0 -51 24.5 -80.5t61.5 -29.5q57 0 135 22v-76q-197 -72 -309 -71q-154 0 -154 149v10q-174 -164 -325 -163q-139 0 -217 98t-78 274z M299 385q0 -236 156 -235q88 0 207 96l96 542l-82 123q-4 0 -12.5 1t-14.5 1q-145 0 -247.5 -149.5t-102.5 -378.5zM582 1130l274 390h252l-389 -390h-137z" />
<glyph unicode="&#xe2;" horiz-adv-x="1171" d="M37 356q0 221 123 408q76 117 196.5 182.5t257.5 65.5q106 0 238 -51l76 49h121q-29 -88 -70 -312l-61 -331q-18 -100 -19 -144q0 -51 24.5 -80.5t61.5 -29.5q57 0 135 22v-76q-197 -72 -309 -71q-154 0 -154 149v10q-174 -164 -325 -163q-139 0 -217 98t-78 274z M299 385q0 -236 156 -235q88 0 207 96l96 542l-82 123q-4 0 -12.5 1t-14.5 1q-145 0 -247.5 -149.5t-102.5 -378.5zM356 1130l301 390h179l151 -390h-158l-108 256l-205 -256h-160z" />
<glyph unicode="&#xe3;" horiz-adv-x="1171" d="M37 356q0 221 123 408q76 117 196.5 182.5t257.5 65.5q106 0 238 -51l76 49h121q-29 -88 -70 -312l-61 -331q-18 -100 -19 -144q0 -51 24.5 -80.5t61.5 -29.5q57 0 135 22v-76q-197 -72 -309 -71q-154 0 -154 149v10q-174 -164 -325 -163q-139 0 -217 98t-78 274z M299 385q0 -236 156 -235q88 0 207 96l96 542l-82 123q-4 0 -12.5 1t-14.5 1q-145 0 -247.5 -149.5t-102.5 -378.5zM344 1167q18 133 79.5 206t151.5 73q66 0 158 -48t121 -48q86 0 104 129h109q-20 -133 -80.5 -205t-148.5 -72q-72 0 -165 47t-116 47q-84 0 -100 -129h-113 z" />
<glyph unicode="&#xe4;" horiz-adv-x="1171" d="M37 356q0 221 123 408q76 117 196.5 182.5t257.5 65.5q106 0 238 -51l76 49h121q-29 -88 -70 -312l-61 -331q-18 -100 -19 -144q0 -51 24.5 -80.5t61.5 -29.5q57 0 135 22v-76q-197 -72 -309 -71q-154 0 -154 149v10q-174 -164 -325 -163q-139 0 -217 98t-78 274z M299 385q0 -236 156 -235q88 0 207 96l96 542l-82 123q-4 0 -12.5 1t-14.5 1q-145 0 -247.5 -149.5t-102.5 -378.5zM356 1319q0 57 38 96t91.5 39t92 -40t38.5 -95q0 -53 -38.5 -93t-92 -40t-91.5 39t-38 94zM778 1319q0 57 39 96t92.5 39t92 -40t38.5 -95t-38.5 -94 t-92 -39t-92.5 39t-39 94z" />
<glyph unicode="&#xe5;" horiz-adv-x="1171" d="M37 356q0 221 123 408q76 117 196.5 182.5t257.5 65.5q106 0 238 -51l76 49h121q-29 -88 -70 -312l-61 -331q-18 -100 -19 -144q0 -51 24.5 -80.5t61.5 -29.5q57 0 135 22v-76q-197 -72 -309 -71q-154 0 -154 149v10q-174 -164 -325 -163q-139 0 -217 98t-78 274z M299 385q0 -236 156 -235q88 0 207 96l96 542l-82 123q-4 0 -12.5 1t-14.5 1q-145 0 -247.5 -149.5t-102.5 -378.5zM440 1356q0 92 67.5 159.5t162.5 67.5q96 0 162.5 -67.5t66.5 -166t-66.5 -165t-162.5 -66.5q-98 0 -164 68t-66 170zM545 1350q0 -53 36.5 -91t88.5 -38 q53 0 90 37.5t37 91t-38 92.5t-89.5 39t-88 -38t-36.5 -93z" />
<glyph unicode="&#xe6;" horiz-adv-x="1472" d="M10 205q0 162 148.5 253t457.5 128l21 106q6 31 6 72q0 66 -38 101.5t-107 35.5q-35 0 -88 -12l-39 -199h-197q-55 0 -55 37q0 111 126 197t308 86q100 0 163.5 -27t108.5 -94q190 123 330 123q115 0 180.5 -60.5t65.5 -163.5q0 -152 -147.5 -240.5t-417.5 -88.5h-17 q-2 -18 -2 -51q0 -131 56.5 -200t160.5 -69q135 0 316 146v-127q-219 -176 -428 -176q-199 0 -291 157q-205 -156 -393 -155q-102 0 -165 61.5t-63 159.5zM264 264q0 -59 34 -91t95 -32q86 0 207 76q-18 78 -18 150q0 59 12 120q-330 -45 -330 -223zM827 547 q166 14 262.5 89t96.5 171q0 45 -26.5 72.5t-69.5 27.5q-80 0 -153 -95t-110 -265z" />
<glyph unicode="&#xe7;" horiz-adv-x="894" d="M33 373q0 223 135 407q76 104 198.5 167t245.5 63q106 0 166 -45t60 -121q0 -63 -46.5 -105.5t-123.5 -44.5l-131 209q-106 -31 -177 -164t-71 -319q0 -133 53 -205t150 -72q143 0 315 152v-121q-219 -195 -428 -194q-156 0 -251 107.5t-95 285.5zM55 -449l19 97 q78 -16 123 -17q68 0 104.5 25t36.5 65q0 53 -82 54q-10 0 -43 -4l43 229h100l-22 -117q12 2 33 2q139 0 139 -121q0 -98 -81 -166.5t-208 -68.5q-76 -1 -162 22z" />
<glyph unicode="&#xe8;" horiz-adv-x="950" d="M39 371q0 301 231 497q162 137 359 138q119 0 186.5 -60.5t67.5 -163.5q0 -147 -138.5 -233t-392.5 -86q-10 0 -30.5 1t-32.5 1q-4 -45 -4 -62q0 -129 57 -198.5t162 -69.5q139 0 321 144l-4 -125q-221 -172 -420 -172q-170 0 -266 103.5t-96 285.5zM299 1520h254 l123 -390h-137zM305 551q166 8 268.5 81t102.5 167q0 47 -27.5 75.5t-73.5 28.5q-82 0 -155.5 -92t-114.5 -260z" />
<glyph unicode="&#xe9;" horiz-adv-x="950" d="M39 371q0 301 231 497q162 137 359 138q119 0 186.5 -60.5t67.5 -163.5q0 -147 -138.5 -233t-392.5 -86q-10 0 -30.5 1t-32.5 1q-4 -45 -4 -62q0 -129 57 -198.5t162 -69.5q139 0 321 144l-4 -125q-221 -172 -420 -172q-170 0 -266 103.5t-96 285.5zM305 551 q166 8 268.5 81t102.5 167q0 47 -27.5 75.5t-73.5 28.5q-82 0 -155.5 -92t-114.5 -260zM471 1130l274 390h252l-389 -390h-137z" />
<glyph unicode="&#xea;" horiz-adv-x="950" d="M39 371q0 301 231 497q162 137 359 138q119 0 186.5 -60.5t67.5 -163.5q0 -147 -138.5 -233t-392.5 -86q-10 0 -30.5 1t-32.5 1q-4 -45 -4 -62q0 -129 57 -198.5t162 -69.5q139 0 321 144l-4 -125q-221 -172 -420 -172q-170 0 -266 103.5t-96 285.5zM246 1130l301 390 h178l152 -390h-158l-109 256l-204 -256h-160zM305 551q166 8 268.5 81t102.5 167q0 47 -27.5 75.5t-73.5 28.5q-82 0 -155.5 -92t-114.5 -260z" />
<glyph unicode="&#xeb;" horiz-adv-x="950" d="M39 371q0 301 231 497q162 137 359 138q119 0 186.5 -60.5t67.5 -163.5q0 -147 -138.5 -233t-392.5 -86q-10 0 -30.5 1t-32.5 1q-4 -45 -4 -62q0 -129 57 -198.5t162 -69.5q139 0 321 144l-4 -125q-221 -172 -420 -172q-170 0 -266 103.5t-96 285.5zM246 1319q0 57 38 96 t91 39t92 -40t39 -95q0 -53 -39 -93t-92 -40t-91 39t-38 94zM305 551q166 8 268.5 81t102.5 167q0 47 -27.5 75.5t-73.5 28.5q-82 0 -155.5 -92t-114.5 -260zM668 1319q0 57 38.5 96t92 39t92.5 -40t39 -95t-39 -94t-92.5 -39t-92 39t-38.5 94z" />
<glyph unicode="&#xec;" horiz-adv-x="651" d="M59 860v74l351 76h90l-131 -693q-10 -57 -11 -84q0 -113 101 -112q45 0 141 29v-84q-201 -80 -350 -80q-152 0 -152 159q0 37 19 138l110 551zM113 1520h254l122 -390h-137z" />
<glyph unicode="&#xed;" horiz-adv-x="651" d="M59 860v74l351 76h90l-131 -693q-10 -57 -11 -84q0 -113 101 -112q45 0 141 29v-84q-201 -80 -350 -80q-152 0 -152 159q0 37 19 138l110 551zM285 1130l274 390h252l-389 -390h-137z" />
<glyph unicode="&#xee;" horiz-adv-x="651" d="M59 860v74l351 76h90l-131 -693q-10 -57 -11 -84q0 -113 101 -112q45 0 141 29v-84q-201 -80 -350 -80q-152 0 -152 159q0 37 19 138l110 551zM59 1130l301 390h179l151 -390h-158l-108 256l-205 -256h-160z" />
<glyph unicode="&#xef;" horiz-adv-x="651" d="M59 860v74l351 76h90l-131 -693q-10 -57 -11 -84q0 -113 101 -112q45 0 141 29v-84q-201 -80 -350 -80q-152 0 -152 159q0 37 19 138l110 551zM59 1319q0 57 38 96t91.5 39t92 -40t38.5 -95q0 -53 -38.5 -93t-92 -40t-91.5 39t-38 94zM481 1319q0 57 39 96t92.5 39 t92 -40t38.5 -95t-38.5 -94t-92 -39t-92.5 39t-39 94z" />
<glyph unicode="&#xf0;" horiz-adv-x="1148" d="M53 397q0 260 185 441q154 150 380 149q18 0 109 -8q-43 111 -88 197l-270 -105l-33 86l252 96l-62 97l-166 32l7 70l321 64l111 -177l239 93l33 -86l-221 -89q186 -330 186 -614q0 -299 -164.5 -482.5t-425.5 -183.5q-176 0 -284.5 116t-108.5 304zM317 367 q0 -281 177 -281q131 0 209.5 145.5t78.5 411.5q0 106 -32 234q-55 14 -97 14q-154 0 -245 -141t-91 -383z" />
<glyph unicode="&#xf1;" horiz-adv-x="1228" d="M53 854v68l361 88h80l-41 -203q250 203 409 203q82 0 134.5 -55.5t52.5 -145.5q0 -55 -23 -162l-61 -280q-23 -109 -23 -152q0 -45 24.5 -73.5t61.5 -28.5q57 0 135 22v-78q-188 -70 -309 -69q-166 0 -166 145q0 23 17 109l73 340q18 90 19 135q0 55 -27 87t-74 32 q-96 0 -256 -136l-121 -700h-260l164 831zM373 1167q18 133 79.5 206t151.5 73q66 0 158 -48t121 -48q86 0 104 129h109q-20 -133 -81 -205t-149 -72q-72 0 -165 47t-115 47q-84 0 -101 -129h-112z" />
<glyph unicode="&#xf2;" horiz-adv-x="1126" d="M39 403q0 256 178 441q160 166 393 166q193 0 304.5 -114t111.5 -308q0 -262 -178 -447q-158 -164 -393 -164q-193 0 -304.5 115.5t-111.5 310.5zM303 371q0 -287 174 -287q117 0 201 148.5t84 377.5q0 293 -178 293q-115 0 -198 -149.5t-83 -382.5zM387 1520h254 l123 -390h-137z" />
<glyph unicode="&#xf3;" horiz-adv-x="1126" d="M39 403q0 256 178 441q160 166 393 166q193 0 304.5 -114t111.5 -308q0 -262 -178 -447q-158 -164 -393 -164q-193 0 -304.5 115.5t-111.5 310.5zM303 371q0 -287 174 -287q117 0 201 148.5t84 377.5q0 293 -178 293q-115 0 -198 -149.5t-83 -382.5zM559 1130l275 390 h251l-389 -390h-137z" />
<glyph unicode="&#xf4;" horiz-adv-x="1126" d="M39 403q0 256 178 441q160 166 393 166q193 0 304.5 -114t111.5 -308q0 -262 -178 -447q-158 -164 -393 -164q-193 0 -304.5 115.5t-111.5 310.5zM303 371q0 -287 174 -287q117 0 201 148.5t84 377.5q0 293 -178 293q-115 0 -198 -149.5t-83 -382.5zM334 1130l301 390 h178l152 -390h-158l-109 256l-204 -256h-160z" />
<glyph unicode="&#xf5;" horiz-adv-x="1126" d="M39 403q0 256 178 441q160 166 393 166q193 0 304.5 -114t111.5 -308q0 -262 -178 -447q-158 -164 -393 -164q-193 0 -304.5 115.5t-111.5 310.5zM303 371q0 -287 174 -287q117 0 201 148.5t84 377.5q0 293 -178 293q-115 0 -198 -149.5t-83 -382.5zM322 1167 q18 133 79.5 206t151.5 73q66 0 158 -48t120 -48q86 0 105 129h108q-20 -133 -80.5 -205t-148.5 -72q-72 0 -165 47t-115 47q-84 0 -101 -129h-112z" />
<glyph unicode="&#xf6;" horiz-adv-x="1126" d="M39 403q0 256 178 441q160 166 393 166q193 0 304.5 -114t111.5 -308q0 -262 -178 -447q-158 -164 -393 -164q-193 0 -304.5 115.5t-111.5 310.5zM303 371q0 -287 174 -287q117 0 201 148.5t84 377.5q0 293 -178 293q-115 0 -198 -149.5t-83 -382.5zM334 1319q0 57 38 96 t91 39t92 -40t39 -95q0 -53 -39 -93t-92 -40t-91 39t-38 94zM756 1319q0 57 39 96t92 39t92 -40t39 -95t-39 -94t-92 -39t-92 39t-39 94z" />
<glyph unicode="&#xf7;" horiz-adv-x="1705" d="M254 528v166h1198v-166h-1198zM717 229.5q0 57.5 41 97.5t96 40q57 0 97 -40t40 -98q0 -55 -40 -95t-97 -40t-97 39t-40 96.5zM717 989.5q0 57.5 41 98t96 40.5q57 0 97 -40.5t40 -98.5q0 -55 -40 -95t-97 -40t-97 39t-40 96.5z" />
<glyph unicode="&#xf8;" horiz-adv-x="1126" d="M39 401q0 260 182 447q158 162 400 162q94 0 159 -29l111 180l76 -51l-105 -170q164 -111 164 -352q0 -262 -182 -449q-158 -162 -387 -162q-94 0 -166 27l-113 -180l-74 49l103 170q-168 125 -168 358zM289 395q0 -104 24 -184l398 645q-49 51 -121 51 q-125 0 -213 -144.5t-88 -367.5zM360 129q41 -49 119 -49q125 0 211 145.5t86 376.5q0 106 -22 164z" />
<glyph unicode="&#xf9;" horiz-adv-x="1226" d="M57 858v64l355 75h77l-118 -612q-16 -88 -17 -121q0 -111 109 -110q96 0 246 98l139 721l244 28l-121 -634q-23 -109 -23 -150q0 -47 24.5 -75.5t61.5 -28.5q59 0 137 22v-76q-227 -78 -321 -77q-154 0 -154 157v19q-236 -178 -377 -178q-100 0 -155 55t-55 155 q0 47 12 111l100 533zM438 1520h254l123 -390h-137z" />
<glyph unicode="&#xfa;" horiz-adv-x="1226" d="M57 858v64l355 75h77l-118 -612q-16 -88 -17 -121q0 -111 109 -110q96 0 246 98l139 721l244 28l-121 -634q-23 -109 -23 -150q0 -47 24.5 -75.5t61.5 -28.5q59 0 137 22v-76q-227 -78 -321 -77q-154 0 -154 157v19q-236 -178 -377 -178q-100 0 -155 55t-55 155 q0 47 12 111l100 533zM610 1130l275 390h252l-389 -390h-138z" />
<glyph unicode="&#xfb;" horiz-adv-x="1226" d="M57 858v64l355 75h77l-118 -612q-16 -88 -17 -121q0 -111 109 -110q96 0 246 98l139 721l244 28l-121 -634q-23 -109 -23 -150q0 -47 24.5 -75.5t61.5 -28.5q59 0 137 22v-76q-227 -78 -321 -77q-154 0 -154 157v19q-236 -178 -377 -178q-100 0 -155 55t-55 155 q0 47 12 111l100 533zM385 1130l301 390h178l152 -390h-158l-108 256l-205 -256h-160z" />
<glyph unicode="&#xfc;" horiz-adv-x="1226" d="M57 858v64l355 75h77l-118 -612q-16 -88 -17 -121q0 -111 109 -110q96 0 246 98l139 721l244 28l-121 -634q-23 -109 -23 -150q0 -47 24.5 -75.5t61.5 -28.5q59 0 137 22v-76q-227 -78 -321 -77q-154 0 -154 157v19q-236 -178 -377 -178q-100 0 -155 55t-55 155 q0 47 12 111l100 533zM385 1319q0 57 38 96t91 39t92 -40t39 -95q0 -53 -39 -93t-92 -40t-91 39t-38 94zM807 1319q0 57 39 96t92 39t92 -40t39 -95t-39 -94t-92 -39t-92 39t-39 94z" />
<glyph unicode="&#xfd;" horiz-adv-x="1011" d="M-160 -285q0 53 32 90t87 48l137 -129q139 12 305 329h-77l-123 649q-14 84 -51 154l-179 16v68l316 72q63 -12 97 -86t58 -230l70 -446q170 424 313 760h64l162 -54v-55l-121 -67q-90 -121 -215 -404t-185 -387q-270 -485 -518 -485q-72 0 -122 47t-50 110zM502 1130 l274 390h252l-389 -390h-137z" />
<glyph unicode="&#xfe;" horiz-adv-x="1157" d="M-129 -365l125 33l18 27l289 1642l-178 23v67l360 80h88q-6 -31 -15 -81t-15 -83.5t-11 -60.5l-73 -412q172 141 329 142q123 0 199 -96.5t76 -262.5q0 -289 -186 -483q-166 -176 -404 -176q-74 0 -160 33l-61 -357l190 -37v-79h-571v81zM332 143q72 -35 141 -34 q137 0 235.5 147t98.5 371q0 111 -43 171t-119 60q-82 0 -201 -88z" />
<glyph unicode="&#xff;" horiz-adv-x="1011" d="M-160 -285q0 53 32 90t87 48l137 -129q139 12 305 329h-77l-123 649q-14 84 -51 154l-179 16v68l316 72q63 -12 97 -86t58 -230l70 -446q170 424 313 760h64l162 -54v-55l-121 -67q-90 -121 -215 -404t-185 -387q-270 -485 -518 -485q-72 0 -122 47t-50 110zM276 1319 q0 57 38 96t91.5 39t92.5 -40t39 -95q0 -53 -39 -93t-92.5 -40t-91.5 39t-38 94zM698 1319q0 57 39 96t92.5 39t92.5 -40t39 -95t-39 -94t-92.5 -39t-92.5 39t-39 94z" />
<glyph unicode="&#x152;" horiz-adv-x="2054" d="M78 514q0 219 75.5 403.5t217.5 311.5q188 170 430 170q260 0 381 -219l35 194h827l-64 -319h-131l-2 174l-24 26h-375l-92 -487h237l37 29l47 149h117l-90 -473h-111l2 152l-26 26h-236l-100 -532h450l29 28l80 222h135l-72 -369h-892l26 150q-188 -174 -403 -175 q-227 0 -367.5 149.5t-140.5 389.5zM362 522q0 -195 81 -304t214 -109q186 0 320 221q137 227 137 526q0 195 -80 303.5t-213 108.5q-184 0 -319 -226q-140 -229 -140 -520z" />
<glyph unicode="&#x153;" horiz-adv-x="1628" d="M41 393q0 270 174 451q164 168 383 168q223 0 332 -168q176 166 385 166q109 0 174 -61.5t65 -160.5q0 -150 -143 -237.5t-399 -87.5h-39q-2 -18 -2 -53q0 -129 57 -201t158 -72q139 0 319 150v-127q-223 -180 -424 -180q-203 0 -280 151q-154 -152 -379 -151 q-170 0 -275.5 114.5t-105.5 298.5zM305 371q0 -137 45 -210t125 -73q111 0 193 151.5t82 381.5q0 137 -43 210.5t-119 73.5q-119 0 -201 -149t-82 -385zM981 549q164 12 261 87t97 171q0 45 -25.5 71.5t-68.5 26.5q-82 0 -154.5 -93t-109.5 -263z" />
<glyph unicode="&#x178;" d="M53 1276v98h559v-98l-127 -12l-24 -29l174 -533l379 527l-19 33l-131 12v100h479v-96l-133 -18l-20 -19l-500 -676l-80 -426l23 -26l139 -13v-100h-582v100l138 13l32 32l74 392l-233 710l-19 17zM401 1700q0 57 38 96t91.5 39t92.5 -40t39 -95q0 -53 -39 -93t-92.5 -40 t-91.5 39t-38 94zM823 1700q0 57 39 96t92.5 39t92 -40t38.5 -95t-38.5 -94t-92 -39t-92.5 39t-39 94z" />
<glyph unicode="&#x2c6;" horiz-adv-x="1024" d="M283 1130l301 390h178l151 -390h-157l-109 256l-205 -256h-159z" />
<glyph unicode="&#x2dc;" horiz-adv-x="1024" d="M270 1167q18 133 80 206t152 73q66 0 158 -48t120 -48q86 0 105 129h108q-20 -133 -80.5 -205t-148.5 -72q-72 0 -165 47t-116 47q-84 0 -100 -129h-113z" />
<glyph unicode="&#x2000;" horiz-adv-x="994" />
<glyph unicode="&#x2001;" horiz-adv-x="1989" />
<glyph unicode="&#x2002;" horiz-adv-x="994" />
<glyph unicode="&#x2003;" horiz-adv-x="1989" />
<glyph unicode="&#x2004;" horiz-adv-x="663" />
<glyph unicode="&#x2005;" horiz-adv-x="497" />
<glyph unicode="&#x2006;" horiz-adv-x="331" />
<glyph unicode="&#x2007;" horiz-adv-x="331" />
<glyph unicode="&#x2008;" horiz-adv-x="248" />
<glyph unicode="&#x2009;" horiz-adv-x="397" />
<glyph unicode="&#x200a;" horiz-adv-x="110" />
<glyph unicode="&#x2010;" horiz-adv-x="655" d="M20 393l37 201h518l-34 -201h-521z" />
<glyph unicode="&#x2011;" horiz-adv-x="655" d="M20 393l37 201h518l-34 -201h-521z" />
<glyph unicode="&#x2012;" horiz-adv-x="655" d="M20 393l37 201h518l-34 -201h-521z" />
<glyph unicode="&#x2013;" horiz-adv-x="1024" d="M-51 401l33 185h1038l-35 -185h-1036z" />
<glyph unicode="&#x2014;" horiz-adv-x="2048" d="M-45 401l35 185h2058l-29 -185h-2064z" />
<glyph unicode="&#x2018;" horiz-adv-x="534" d="M156 971q0 131 102 258t285 201l32 -60q-233 -129 -245 -315h123q23 -35 22 -76q0 -72 -48 -121t-120 -49q-70 0 -110.5 43t-40.5 119z" />
<glyph unicode="&#x2019;" horiz-adv-x="534" d="M131 870q236 131 246 314h-123q-23 35 -23 73q0 72 48.5 122.5t119.5 50.5q70 0 110 -43.5t40 -118.5q0 -131 -102.5 -259t-282.5 -200z" />
<glyph unicode="&#x201a;" horiz-adv-x="534" d="M-111 -295q233 129 246 315h-123q-23 35 -22 74q0 72 48 121t120 49q70 0 110.5 -43t40.5 -117q0 -133 -102.5 -260t-282.5 -200z" />
<glyph unicode="&#x201c;" horiz-adv-x="985" d="M160 973q0 129 103.5 256t283.5 201l31 -62q-238 -129 -246 -313h125q23 -35 22 -74q0 -72 -49 -122t-121 -50q-70 0 -109.5 44t-39.5 120zM610 971q0 131 102.5 258t284.5 201l33 -62q-236 -133 -246 -313h125q23 -39 23 -74q0 -70 -49 -121t-121 -51q-70 0 -111 44 t-41 118z" />
<glyph unicode="&#x201d;" horiz-adv-x="985" d="M131 870q236 129 246 314h-123q-23 39 -23 76q0 70 48.5 120t119.5 50q70 0 111 -44.5t41 -117.5q0 -131 -102.5 -258t-284.5 -201zM584 870q236 129 245 314h-124q-20 33 -21 76q0 72 48 121t120 49q70 0 111 -43.5t41 -118.5q0 -131 -102.5 -258t-285.5 -201z" />
<glyph unicode="&#x201e;" horiz-adv-x="985" d="M-104 -295q233 129 245 315h-123q-23 35 -22 74q0 72 48 121t120 49q70 0 110.5 -43t40.5 -117q0 -131 -103 -259t-284 -201zM348 -295q238 133 246 315h-123q-23 29 -22 72q0 72 48 122t119 50q70 0 111 -43t41 -117q0 -131 -103.5 -260t-283.5 -200z" />
<glyph unicode="&#x2022;" horiz-adv-x="1208" d="M307 762q0 123 87 209t210 86q121 0 208 -86t87 -209q0 -121 -87 -209t-210 -88t-209 87t-86 210z" />
<glyph unicode="&#x2026;" horiz-adv-x="2048" d="M86 145.5q0 65.5 46 112.5t110 47q66 0 110.5 -46t44.5 -113.5t-45 -112.5t-110 -45q-63 0 -109.5 46t-46.5 111.5zM768 145.5q0 65.5 46 112.5t110 47q66 0 110.5 -46t44.5 -113.5t-45 -112.5t-110 -45q-63 0 -109.5 46t-46.5 111.5zM1452 145.5q0 65.5 46 112.5t110 47 q66 0 110.5 -46t44.5 -113.5t-45 -112.5t-110 -45q-63 0 -109.5 46t-46.5 111.5z" />
<glyph unicode="&#x202f;" horiz-adv-x="397" />
<glyph unicode="&#x2039;" horiz-adv-x="544" d="M20 406l33 172l412 292l-31 -170l-264 -208l186 -209l-30 -170z" />
<glyph unicode="&#x203a;" horiz-adv-x="544" d="M-27 113l31 170l264 209l-186 208l31 170l305 -292l-33 -172z" />
<glyph unicode="&#x205f;" horiz-adv-x="497" />
<glyph unicode="&#x2122;" horiz-adv-x="1673" d="M233 1204v152h480v-152h-60l-16 90l-14 11h-93v-424l74 -15v-49h-264v49l74 13v426h-90l-17 -11l-12 -90h-62zM768 817v49l66 13v413l-66 13v51h233v-27l125 -350l125 350v27h232v-51l-68 -13v-413l68 -13v-49h-240v49l60 13v415l-175 -477h-61l-170 477v-415l64 -13v-49 h-193z" />
<glyph unicode="&#x25fc;" horiz-adv-x="1013" d="M0 0v1014h1014v-1014h-1014z" />
<glyph unicode="&#xfb01;" horiz-adv-x="1271" d="M-315 -311q0 90 84 129l219 -117q76 104 133 508l88 627l-135 -17v90l159 70q41 238 180.5 381t307.5 143q84 0 134 -38t50 -95q0 -92 -108 -137l-183 172q-92 -111 -153 -449h381l194 54h90l-131 -693q-10 -51 -10 -84q0 -113 100 -112q45 0 142 29v-84 q-201 -80 -350 -80q-152 0 -152 159q0 41 18 138l111 555l-410 2l-75 -539q-43 -289 -148 -455q-86 -135 -191.5 -209.5t-201.5 -74.5q-61 0 -102 37t-41 90zM940 1327q0 63 43 106.5t104 43.5q59 0 94.5 -36t35.5 -93q0 -61 -42 -103.5t-104 -42.5q-57 0 -94 35t-37 90z " />
<glyph unicode="&#xfb02;" horiz-adv-x="1288" d="M-315 -311q0 92 82 129l219 -117q76 104 133 508l90 627l-135 -17v90l159 70q41 238 180.5 380t309.5 142q113 0 164 -61l246 67h88q-6 -31 -11.5 -58.5t-8.5 -43.5t-3 -19l-190 -1003q-23 -123 -23 -168q0 -104 100 -104q43 0 148 32v-80q-207 -82 -313 -81 q-184 0 -185 184q0 51 29 201l186 964l-78 6l-92 -98l-166 166q-94 -115 -155 -449h262v-118h-277l-75 -537q-41 -287 -148 -455q-86 -135 -192.5 -209.5t-202.5 -74.5q-61 0 -101 37t-40 90z" />
</font>
</defs>
</svg>
